<?xml version="1.0" encoding="UTF-8" standalone="no"?>
<!DOCTYPE svg PUBLIC "-//W3C//DTD SVG 1.1//EN"
 "http://www.w3.org/Graphics/SVG/1.1/DTD/svg11.dtd">
<!-- Generated by graphviz version 2.38.0 (20140413.2041)
 -->
<!-- Title: %3 Pages: 1 -->
<svg width="324pt" height="182pt"
 viewBox="0.00 0.00 324.00 182.47" xmlns="http://www.w3.org/2000/svg" xmlns:xlink="http://www.w3.org/1999/xlink">
<g id="graph0" class="graph" transform="scale(1 1) rotate(0) translate(4 178.468)">
<title>%3</title>
<polygon fill="white" stroke="none" points="-4,4 -4,-178.468 320,-178.468 320,4 -4,4"/>
<!-- 0 -->
<g id="node1" class="node"><title>0</title>
<polygon fill="lightgray" stroke="black" points="121,-165.468 100,-165.468 100,-147.468 121,-147.468 121,-165.468"/>
<text text-anchor="middle" x="110.5" y="-154.268" font-family="Times New Roman,serif" font-size="9.00">0</text>
</g>
<!-- 10 -->
<g id="node11" class="node"><title>10</title>
<ellipse fill="white" stroke="black" cx="141.5" cy="-84.0833" rx="18.2703" ry="18.2703"/>
<text text-anchor="middle" x="141.5" y="-81.8833" font-family="Times New Roman,serif" font-size="9.00">10</text>
</g>
<!-- 0&#45;&gt;10 -->
<g id="edge1" class="edge"><title>0&#45;&gt;10</title>
<path fill="none" stroke="red" stroke-width="0.23209" d="M114.056,-147.394C117.985,-138.474 124.511,-123.656 130.214,-110.708"/>
<polygon fill="red" stroke="red" stroke-width="0.23209" points="133.53,-111.862 134.358,-101.3 127.124,-109.041 133.53,-111.862"/>
</g>
<!-- 11 -->
<g id="node12" class="node"><title>11</title>
<ellipse fill="white" stroke="black" cx="196.5" cy="-84.0833" rx="18.2703" ry="18.2703"/>
<text text-anchor="middle" x="196.5" y="-81.8833" font-family="Times New Roman,serif" font-size="9.00">11</text>
</g>
<!-- 0&#45;&gt;11 -->
<g id="edge9" class="edge"><title>0&#45;&gt;11</title>
<path fill="none" stroke="green" stroke-width="0.175326" d="M119.821,-147.464C123.173,-144.607 126.992,-141.377 130.5,-138.468 145.111,-126.353 161.725,-112.916 174.628,-102.554"/>
<polygon fill="green" stroke="green" stroke-width="0.175326" points="176.9,-105.219 182.514,-96.2334 172.522,-99.7567 176.9,-105.219"/>
</g>
<!-- 1 -->
<g id="node2" class="node"><title>1</title>
<polygon fill="lightgray" stroke="black" points="160,-165.468 139,-165.468 139,-147.468 160,-147.468 160,-165.468"/>
<text text-anchor="middle" x="149.5" y="-154.268" font-family="Times New Roman,serif" font-size="9.00">1</text>
</g>
<!-- 1&#45;&gt;10 -->
<g id="edge2" class="edge"><title>1&#45;&gt;10</title>
<path fill="none" stroke="red" stroke-width="0.112983" d="M148.582,-147.394C147.614,-138.875 146.034,-124.975 144.612,-112.463"/>
<polygon fill="red" stroke="red" stroke-width="0.112983" points="148.078,-111.969 143.471,-102.428 141.123,-112.759 148.078,-111.969"/>
</g>
<!-- 1&#45;&gt;11 -->
<g id="edge10" class="edge"><title>1&#45;&gt;11</title>
<path fill="none" stroke="green" stroke-width="0.193619" d="M154.891,-147.394C161.221,-137.915 171.997,-121.777 180.997,-108.3"/>
<polygon fill="green" stroke="green" stroke-width="0.193619" points="183.947,-110.184 186.59,-99.9241 178.126,-106.297 183.947,-110.184"/>
</g>
<!-- 2 -->
<g id="node3" class="node"><title>2</title>
<polygon fill="lightgray" stroke="black" points="199,-165.468 178,-165.468 178,-147.468 199,-147.468 199,-165.468"/>
<text text-anchor="middle" x="188.5" y="-154.268" font-family="Times New Roman,serif" font-size="9.00">2</text>
</g>
<!-- 2&#45;&gt;10 -->
<g id="edge3" class="edge"><title>2&#45;&gt;10</title>
<path fill="none" stroke="green" stroke-width="0.110694" d="M183.109,-147.394C176.779,-137.915 166.003,-121.777 157.003,-108.3"/>
<polygon fill="green" stroke="green" stroke-width="0.110694" points="159.874,-106.297 151.41,-99.9241 154.053,-110.184 159.874,-106.297"/>
</g>
<!-- 2&#45;&gt;11 -->
<g id="edge11" class="edge"><title>2&#45;&gt;11</title>
<path fill="none" stroke="red" stroke-width="0.145827" d="M189.418,-147.394C190.386,-138.875 191.966,-124.975 193.388,-112.463"/>
<polygon fill="red" stroke="red" stroke-width="0.145827" points="196.877,-112.759 194.529,-102.428 189.922,-111.969 196.877,-112.759"/>
</g>
<!-- 3 -->
<g id="node4" class="node"><title>3</title>
<polygon fill="lightgray" stroke="black" points="238,-165.468 217,-165.468 217,-147.468 238,-147.468 238,-165.468"/>
<text text-anchor="middle" x="227.5" y="-154.268" font-family="Times New Roman,serif" font-size="9.00">3</text>
</g>
<!-- 3&#45;&gt;10 -->
<g id="edge4" class="edge"><title>3&#45;&gt;10</title>
<path fill="none" stroke="red" stroke-width="0.144685" d="M218.7,-147.405C215.52,-144.543 211.882,-141.324 208.5,-138.468 193.866,-126.109 176.999,-112.674 163.85,-102.373"/>
<polygon fill="red" stroke="red" stroke-width="0.144685" points="165.844,-99.4901 155.806,-96.0999 161.539,-105.01 165.844,-99.4901"/>
</g>
<!-- 3&#45;&gt;11 -->
<g id="edge12" class="edge"><title>3&#45;&gt;11</title>
<path fill="none" stroke="red" stroke-width="0.171059" d="M223.944,-147.394C220.015,-138.474 213.489,-123.656 207.786,-110.708"/>
<polygon fill="red" stroke="red" stroke-width="0.171059" points="210.876,-109.041 203.642,-101.3 204.47,-111.862 210.876,-109.041"/>
</g>
<!-- 4 -->
<g id="node5" class="node"><title>4</title>
<polygon fill="lightgray" stroke="black" points="277,-165.468 256,-165.468 256,-147.468 277,-147.468 277,-165.468"/>
<text text-anchor="middle" x="266.5" y="-154.268" font-family="Times New Roman,serif" font-size="9.00">4</text>
</g>
<!-- 4&#45;&gt;10 -->
<g id="edge5" class="edge"><title>4&#45;&gt;10</title>
<path fill="none" stroke="green" stroke-width="0.231712" d="M258.429,-147.278C255.205,-144.275 251.348,-140.995 247.5,-138.468 215.587,-117.507 203.116,-120.572 169.5,-102.468 168.178,-101.756 166.832,-101.007 165.482,-100.236"/>
<polygon fill="green" stroke="green" stroke-width="0.231712" points="167.084,-97.1164 156.704,-94.9947 163.495,-103.127 167.084,-97.1164"/>
</g>
<!-- 4&#45;&gt;11 -->
<g id="edge13" class="edge"><title>4&#45;&gt;11</title>
<path fill="none" stroke="green" stroke-width="0.159871" d="M258.47,-147.394C248.289,-137.157 230.383,-119.153 216.428,-105.121"/>
<polygon fill="green" stroke="green" stroke-width="0.159871" points="218.69,-102.431 209.156,-97.809 213.726,-107.368 218.69,-102.431"/>
</g>
<!-- 5 -->
<g id="node6" class="node"><title>5</title>
<polygon fill="lightgray" stroke="black" points="316,-165.468 295,-165.468 295,-147.468 316,-147.468 316,-165.468"/>
<text text-anchor="middle" x="305.5" y="-154.268" font-family="Times New Roman,serif" font-size="9.00">5</text>
</g>
<!-- 5&#45;&gt;10 -->
<g id="edge6" class="edge"><title>5&#45;&gt;10</title>
<path fill="none" stroke="green" stroke-width="0.107532" d="M297.965,-147.35C294.694,-144.212 290.662,-140.819 286.5,-138.468 239.13,-111.709 219.019,-125.003 169.5,-102.468 168.1,-101.831 166.686,-101.136 165.275,-100.403"/>
<polygon fill="green" stroke="green" stroke-width="0.107532" points="166.633,-97.1466 156.218,-95.204 163.149,-103.218 166.633,-97.1466"/>
</g>
<!-- 5&#45;&gt;11 -->
<g id="edge14" class="edge"><title>5&#45;&gt;11</title>
<path fill="none" stroke="green" stroke-width="0.17629" d="M296.909,-147.139C293.75,-144.252 290.07,-141.085 286.5,-138.468 265.664,-123.192 240.204,-108.414 221.687,-98.2946"/>
<polygon fill="green" stroke="green" stroke-width="0.17629" points="223.162,-95.1132 212.698,-93.4494 219.84,-101.275 223.162,-95.1132"/>
</g>
<!-- 6 -->
<g id="node7" class="node"><title>6</title>
<polygon fill="lightgray" stroke="black" points="21,-165.468 0,-165.468 0,-147.468 21,-147.468 21,-165.468"/>
<text text-anchor="middle" x="10.5" y="-154.268" font-family="Times New Roman,serif" font-size="9.00">6</text>
</g>
<!-- 6&#45;&gt;10 -->
<g id="edge7" class="edge"><title>6&#45;&gt;10</title>
<path fill="none" stroke="green" stroke-width="0.125568" d="M19.0769,-147.337C22.4805,-144.341 26.5263,-141.051 30.5,-138.468 57.831,-120.702 91.9717,-105.165 115.121,-95.5016"/>
<polygon fill="green" stroke="green" stroke-width="0.125568" points="116.692,-98.6402 124.618,-91.6094 114.037,-92.1631 116.692,-98.6402"/>
</g>
<!-- 6&#45;&gt;11 -->
<g id="edge15" class="edge"><title>6&#45;&gt;11</title>
<path fill="none" stroke="green" stroke-width="0.207065" d="M18.4471,-147.27C21.8924,-144.121 26.1342,-140.74 30.5,-138.468 86.7277,-109.207 110.252,-127.467 168.5,-102.468 169.913,-101.862 171.338,-101.191 172.757,-100.476"/>
<polygon fill="green" stroke="green" stroke-width="0.207065" points="174.862,-103.306 181.839,-95.3329 171.413,-97.2151 174.862,-103.306"/>
</g>
<!-- 7 -->
<g id="node8" class="node"><title>7</title>
<polygon fill="yellow" stroke="black" points="60.5,-174.468 39.5,-156.468 60.5,-138.468 81.5,-156.468 60.5,-174.468"/>
<text text-anchor="middle" x="60.5" y="-154.268" font-family="Times New Roman,serif" font-size="9.00">7</text>
</g>
<!-- 7&#45;&gt;10 -->
<g id="edge8" class="edge"><title>7&#45;&gt;10</title>
<path fill="none" stroke="red" stroke-width="0.226023" d="M70.4322,-146.837C82.7353,-136.147 104.036,-117.637 120.118,-103.663"/>
<polygon fill="red" stroke="red" stroke-width="0.226023" points="122.724,-106.035 127.977,-96.8344 118.133,-100.752 122.724,-106.035"/>
</g>
<!-- 7&#45;&gt;11 -->
<g id="edge16" class="edge"><title>7&#45;&gt;11</title>
<path fill="none" stroke="red" stroke-width="0.103607" d="M72.4761,-148.666C78.1899,-145.482 85.1502,-141.689 91.5,-138.468 125.191,-121.377 135.283,-120.463 168.5,-102.468 169.821,-101.753 171.165,-101.001 172.514,-100.228"/>
<polygon fill="red" stroke="red" stroke-width="0.103607" points="174.503,-103.117 181.289,-94.9806 170.91,-97.1095 174.503,-103.117"/>
</g>
<!-- 8 -->
<g id="node9" class="node"><title>8</title>
<ellipse fill="lightblue" stroke="black" cx="144.5" cy="-14.8492" rx="14.7" ry="14.7"/>
<text text-anchor="middle" x="144.5" y="-12.6492" font-family="Times New Roman,serif" font-size="9.00">8</text>
</g>
<!-- 9 -->
<g id="node10" class="node"><title>9</title>
<ellipse fill="lightblue" stroke="black" cx="194.5" cy="-14.8492" rx="14.7" ry="14.7"/>
<text text-anchor="middle" x="194.5" y="-12.6492" font-family="Times New Roman,serif" font-size="9.00">9</text>
</g>
<!-- 10&#45;&gt;8 -->
<g id="edge17" class="edge"><title>10&#45;&gt;8</title>
<path fill="none" stroke="green" stroke-width="0.202377" d="M142.288,-65.4183C142.635,-57.6491 143.048,-48.4001 143.422,-40.0073"/>
<polygon fill="green" stroke="green" stroke-width="0.202377" points="146.919,-40.1564 143.868,-30.0103 139.926,-39.8443 146.919,-40.1564"/>
</g>
<!-- 10&#45;&gt;9 -->
<g id="edge19" class="edge"><title>10&#45;&gt;9</title>
<path fill="none" stroke="green" stroke-width="0.227311" d="M152.482,-69.1523C160.233,-59.3189 170.72,-46.0157 179.278,-35.1596"/>
<polygon fill="green" stroke="green" stroke-width="0.227311" points="182.196,-37.111 185.638,-27.0909 176.699,-32.7775 182.196,-37.111"/>
</g>
<!-- 11&#45;&gt;8 -->
<g id="edge18" class="edge"><title>11&#45;&gt;8</title>
<path fill="none" stroke="red" stroke-width="0.209781" d="M185.726,-69.1523C178.12,-59.3189 167.831,-46.0157 159.435,-35.1596"/>
<polygon fill="red" stroke="red" stroke-width="0.209781" points="162.081,-32.8598 153.194,-27.0909 156.544,-37.1424 162.081,-32.8598"/>
</g>
<!-- 11&#45;&gt;9 -->
<g id="edge20" class="edge"><title>11&#45;&gt;9</title>
<path fill="none" stroke="red" stroke-width="0.154793" d="M195.975,-65.4183C195.743,-57.6491 195.468,-48.4001 195.219,-40.0073"/>
<polygon fill="red" stroke="red" stroke-width="0.154793" points="198.717,-39.9018 194.921,-30.0103 191.72,-40.11 198.717,-39.9018"/>
</g>
</g>
</svg>
