<?xml version="1.0" encoding="UTF-8" standalone="no"?>
<!DOCTYPE svg PUBLIC "-//W3C//DTD SVG 1.1//EN"
 "http://www.w3.org/Graphics/SVG/1.1/DTD/svg11.dtd">
<!-- Generated by graphviz version 2.38.0 (20140413.2041)
 -->
<!-- Title: %3 Pages: 1 -->
<svg width="3012pt" height="1282pt"
 viewBox="0.00 0.00 3011.84 1281.85" xmlns="http://www.w3.org/2000/svg" xmlns:xlink="http://www.w3.org/1999/xlink">
<g id="graph0" class="graph" transform="scale(1 1) rotate(0) translate(4 1277.85)">
<title>%3</title>
<polygon fill="white" stroke="none" points="-4,4 -4,-1277.85 3007.84,-1277.85 3007.84,4 -4,4"/>
<!-- 0 -->
<g id="node1" class="node"><title>0</title>
<polygon fill="lightgray" stroke="black" points="2740.5,-1118.93 2719.5,-1118.93 2719.5,-1100.93 2740.5,-1100.93 2740.5,-1118.93"/>
<text text-anchor="middle" x="2730" y="-1107.73" font-family="Times New Roman,serif" font-size="9.00">0</text>
</g>
<!-- 11 -->
<g id="node12" class="node"><title>11</title>
<ellipse fill="white" stroke="black" cx="2080" cy="-1037.16" rx="18.2703" ry="18.2703"/>
<text text-anchor="middle" x="2080" y="-1034.96" font-family="Times New Roman,serif" font-size="9.00">11</text>
</g>
<!-- 0&#45;&gt;11 -->
<g id="edge1" class="edge"><title>0&#45;&gt;11</title>
<path fill="none" stroke="red" stroke-width="0.689209" d="M2719.26,-1107.76C2646.26,-1099.81 2222.45,-1053.67 2108.31,-1041.24"/>
<polygon fill="red" stroke="red" stroke-width="0.689209" points="2108.57,-1037.75 2098.25,-1040.15 2107.81,-1044.71 2108.57,-1037.75"/>
</g>
<!-- 12 -->
<g id="node13" class="node"><title>12</title>
<ellipse fill="white" stroke="black" cx="1006" cy="-673.311" rx="18.2703" ry="18.2703"/>
<text text-anchor="middle" x="1006" y="-671.111" font-family="Times New Roman,serif" font-size="9.00">12</text>
</g>
<!-- 0&#45;&gt;12 -->
<g id="edge2" class="edge"><title>0&#45;&gt;12</title>
<path fill="none" stroke="green" stroke-width="0.663498" d="M2719.31,-1106.28C2674.09,-1095.11 2493.97,-1050.93 2345,-1018.77 2182.03,-983.591 2141.99,-969.967 1977,-946.004 1782.88,-917.81 1263.45,-947.188 1101,-837.235 1052.54,-804.438 1025.45,-738.041 1013.5,-700.934"/>
<polygon fill="green" stroke="green" stroke-width="0.663498" points="1016.82,-699.82 1010.53,-691.296 1010.13,-701.884 1016.82,-699.82"/>
</g>
<!-- 13 -->
<g id="node14" class="node"><title>13</title>
<ellipse fill="white" stroke="black" cx="1932" cy="-964.389" rx="18.2703" ry="18.2703"/>
<text text-anchor="middle" x="1932" y="-962.189" font-family="Times New Roman,serif" font-size="9.00">13</text>
</g>
<!-- 0&#45;&gt;13 -->
<g id="edge3" class="edge"><title>0&#45;&gt;13</title>
<path fill="none" stroke="red" stroke-width="0.450546" d="M2719.32,-1107.01C2636.03,-1092.03 2090.15,-993.837 1959.88,-970.404"/>
<polygon fill="red" stroke="red" stroke-width="0.450546" points="1960.36,-966.934 1949.9,-968.609 1959.12,-973.824 1960.36,-966.934"/>
</g>
<!-- 14 -->
<g id="node15" class="node"><title>14</title>
<ellipse fill="white" stroke="black" cx="1950" cy="-91.1543" rx="18.2703" ry="18.2703"/>
<text text-anchor="middle" x="1950" y="-88.9543" font-family="Times New Roman,serif" font-size="9.00">14</text>
</g>
<!-- 0&#45;&gt;14 -->
<g id="edge4" class="edge"><title>0&#45;&gt;14</title>
<path fill="none" stroke="red" stroke-width="0.752275" d="M2740.69,-1102.68C2785.77,-1075.44 2958,-962.069 2958,-819.85 2958,-819.85 2958,-819.85 2958,-235.693 2958,-143.027 2859.64,-169.011 2770,-145.539 2615.62,-105.117 2104.78,-94.574 1978.45,-92.5584"/>
<polygon fill="red" stroke="red" stroke-width="0.752275" points="1978.45,-89.0581 1968.4,-92.4034 1978.34,-96.0573 1978.45,-89.0581"/>
</g>
<!-- 15 -->
<g id="node16" class="node"><title>15</title>
<ellipse fill="white" stroke="black" cx="2338" cy="-309.463" rx="18.2703" ry="18.2703"/>
<text text-anchor="middle" x="2338" y="-307.263" font-family="Times New Roman,serif" font-size="9.00">15</text>
</g>
<!-- 0&#45;&gt;15 -->
<g id="edge5" class="edge"><title>0&#45;&gt;15</title>
<path fill="none" stroke="green" stroke-width="0.565428" d="M2733.8,-1100.81C2742.98,-1080.98 2766.73,-1028.37 2782,-982.774 2848.87,-783.111 2850.57,-700.876 2763,-509.387 2713.62,-401.418 2651.11,-402.911 2539,-363.848 2478.41,-342.737 2405.08,-325.21 2365.9,-316.465"/>
<polygon fill="green" stroke="green" stroke-width="0.565428" points="2366.54,-313.022 2356.02,-314.285 2365.03,-319.857 2366.54,-313.022"/>
</g>
<!-- 1 -->
<g id="node2" class="node"><title>1</title>
<polygon fill="lightgray" stroke="black" points="1328.5,-827.85 1307.5,-827.85 1307.5,-809.85 1328.5,-809.85 1328.5,-827.85"/>
<text text-anchor="middle" x="1318" y="-816.65" font-family="Times New Roman,serif" font-size="9.00">1</text>
</g>
<!-- 16 -->
<g id="node17" class="node"><title>16</title>
<ellipse fill="white" stroke="black" cx="1242" cy="-600.541" rx="18.2703" ry="18.2703"/>
<text text-anchor="middle" x="1242" y="-598.341" font-family="Times New Roman,serif" font-size="9.00">16</text>
</g>
<!-- 1&#45;&gt;16 -->
<g id="edge6" class="edge"><title>1&#45;&gt;16</title>
<path fill="none" stroke="green" stroke-width="1.66407" d="M1316.82,-809.713C1313.06,-785.312 1300.08,-710.977 1274,-654.926 1269.28,-644.786 1263.15,-634.119 1257.52,-625.008"/>
<polygon fill="green" stroke="green" stroke-width="1.66407" points="1260.43,-623.067 1252.12,-616.494 1254.52,-626.814 1260.43,-623.067"/>
</g>
<!-- 17 -->
<g id="node18" class="node"><title>17</title>
<ellipse fill="white" stroke="black" cx="1674" cy="-527.772" rx="18.2703" ry="18.2703"/>
<text text-anchor="middle" x="1674" y="-525.572" font-family="Times New Roman,serif" font-size="9.00">17</text>
</g>
<!-- 1&#45;&gt;17 -->
<g id="edge7" class="edge"><title>1&#45;&gt;17</title>
<path fill="none" stroke="red" stroke-width="0.21892" d="M1328.74,-814.927C1366.44,-804.222 1494.72,-763.955 1574,-691.696 1617.31,-652.221 1648.45,-589.693 1663.6,-554.692"/>
<polygon fill="red" stroke="red" stroke-width="0.21892" points="1666.95,-555.754 1667.62,-545.18 1660.5,-553.031 1666.95,-555.754"/>
</g>
<!-- 18 -->
<g id="node19" class="node"><title>18</title>
<ellipse fill="white" stroke="black" cx="1272" cy="-746.08" rx="18.2703" ry="18.2703"/>
<text text-anchor="middle" x="1272" y="-743.88" font-family="Times New Roman,serif" font-size="9.00">18</text>
</g>
<!-- 1&#45;&gt;18 -->
<g id="edge8" class="edge"><title>1&#45;&gt;18</title>
<path fill="none" stroke="green" stroke-width="1.68713" d="M1312.72,-809.732C1306.53,-800.201 1295.98,-783.975 1287.17,-770.424"/>
<polygon fill="green" stroke="green" stroke-width="1.68713" points="1290.08,-768.479 1281.7,-762.002 1284.21,-772.294 1290.08,-768.479"/>
</g>
<!-- 2 -->
<g id="node3" class="node"><title>2</title>
<polygon fill="lightgray" stroke="black" points="1531.5,-1191.7 1510.5,-1191.7 1510.5,-1173.7 1531.5,-1173.7 1531.5,-1191.7"/>
<text text-anchor="middle" x="1521" y="-1180.5" font-family="Times New Roman,serif" font-size="9.00">2</text>
</g>
<!-- 2&#45;&gt;15 -->
<g id="edge13" class="edge"><title>2&#45;&gt;15</title>
<path fill="none" stroke="red" stroke-width="0.382523" d="M1531.77,-1181.75C1576.49,-1181.62 1751.28,-1177.8 1883,-1128.31 1967.14,-1096.7 1976.88,-1066.56 2053,-1018.77 2105.5,-985.811 2118.99,-978.142 2172,-946.004 2252.26,-897.352 2289.02,-905.903 2353,-837.235 2437.28,-746.774 2490.12,-703.003 2464,-582.156 2442.78,-483.975 2381.83,-379.25 2353.2,-333.772"/>
<polygon fill="red" stroke="red" stroke-width="0.382523" points="2356.09,-331.794 2347.77,-325.238 2350.18,-335.553 2356.09,-331.794"/>
</g>
<!-- 19 -->
<g id="node20" class="node"><title>19</title>
<ellipse fill="white" stroke="black" cx="1856" cy="-1109.93" rx="18.2703" ry="18.2703"/>
<text text-anchor="middle" x="1856" y="-1107.73" font-family="Times New Roman,serif" font-size="9.00">19</text>
</g>
<!-- 2&#45;&gt;19 -->
<g id="edge9" class="edge"><title>2&#45;&gt;19</title>
<path fill="none" stroke="green" stroke-width="0.90659" d="M1531.77,-1179.42C1577.68,-1169.72 1757.94,-1131.64 1827.97,-1116.85"/>
<polygon fill="green" stroke="green" stroke-width="0.90659" points="1828.79,-1120.25 1837.85,-1114.76 1827.34,-1113.41 1828.79,-1120.25"/>
</g>
<!-- 20 -->
<g id="node21" class="node"><title>20</title>
<ellipse fill="white" stroke="black" cx="1521" cy="-1109.93" rx="18.2703" ry="18.2703"/>
<text text-anchor="middle" x="1521" y="-1107.73" font-family="Times New Roman,serif" font-size="9.00">20</text>
</g>
<!-- 2&#45;&gt;20 -->
<g id="edge10" class="edge"><title>2&#45;&gt;20</title>
<path fill="none" stroke="red" stroke-width="0.877377" d="M1521,-1173.58C1521,-1165.01 1521,-1151.04 1521,-1138.46"/>
<polygon fill="red" stroke="red" stroke-width="0.877377" points="1524.5,-1138.37 1521,-1128.37 1517.5,-1138.37 1524.5,-1138.37"/>
</g>
<!-- 21 -->
<g id="node22" class="node"><title>21</title>
<ellipse fill="white" stroke="black" cx="1364" cy="-673.311" rx="18.2703" ry="18.2703"/>
<text text-anchor="middle" x="1364" y="-671.111" font-family="Times New Roman,serif" font-size="9.00">21</text>
</g>
<!-- 2&#45;&gt;21 -->
<g id="edge11" class="edge"><title>2&#45;&gt;21</title>
<path fill="none" stroke="red" stroke-width="0.83364" d="M1510.46,-1181.8C1422.48,-1182.59 811.77,-1185.98 758,-1128.31 734.363,-1102.96 679.036,-1085.89 764,-946.004 797.772,-890.403 828.86,-892.486 891,-873.235 985.98,-843.809 1263.81,-904.542 1337,-837.235 1374.36,-802.878 1372.96,-738.13 1368.54,-701.451"/>
<polygon fill="red" stroke="red" stroke-width="0.83364" points="1372,-700.901 1367.18,-691.466 1365.06,-701.847 1372,-700.901"/>
</g>
<!-- 22 -->
<g id="node23" class="node"><title>22</title>
<ellipse fill="white" stroke="black" cx="1128" cy="-818.85" rx="18.2703" ry="18.2703"/>
<text text-anchor="middle" x="1128" y="-816.65" font-family="Times New Roman,serif" font-size="9.00">22</text>
</g>
<!-- 2&#45;&gt;22 -->
<g id="edge12" class="edge"><title>2&#45;&gt;22</title>
<path fill="none" stroke="green" stroke-width="0.905596" d="M1510.28,-1181.56C1403.52,-1180.1 534.769,-1167.05 498,-1128.31 464.484,-1093 474.603,-1061.47 498,-1018.77 555.777,-913.349 613.073,-914.466 726,-873.235 859.124,-824.629 1031.44,-819.455 1099.01,-819.463"/>
<polygon fill="green" stroke="green" stroke-width="0.905596" points="1099.28,-822.964 1109.3,-819.506 1099.31,-815.964 1099.28,-822.964"/>
</g>
<!-- 3 -->
<g id="node4" class="node"><title>3</title>
<polygon fill="lightgray" stroke="black" points="2179.5,-682.311 2158.5,-682.311 2158.5,-664.311 2179.5,-664.311 2179.5,-682.311"/>
<text text-anchor="middle" x="2169" y="-671.111" font-family="Times New Roman,serif" font-size="9.00">3</text>
</g>
<!-- 3&#45;&gt;16 -->
<g id="edge14" class="edge"><title>3&#45;&gt;16</title>
<path fill="none" stroke="green" stroke-width="1.34429" d="M2158.27,-671.492C2066.71,-664.502 1416.62,-614.872 1270.93,-603.749"/>
<polygon fill="green" stroke="green" stroke-width="1.34429" points="1270.82,-600.231 1260.58,-602.96 1270.29,-607.211 1270.82,-600.231"/>
</g>
<!-- 23 -->
<g id="node24" class="node"><title>23</title>
<ellipse fill="white" stroke="black" cx="2320" cy="-455.002" rx="18.2703" ry="18.2703"/>
<text text-anchor="middle" x="2320" y="-452.802" font-family="Times New Roman,serif" font-size="9.00">23</text>
</g>
<!-- 3&#45;&gt;23 -->
<g id="edge15" class="edge"><title>3&#45;&gt;23</title>
<path fill="none" stroke="red" stroke-width="0.797287" d="M2174.73,-664.095C2195.99,-633.646 2270.76,-526.543 2303.94,-479.015"/>
<polygon fill="red" stroke="red" stroke-width="0.797287" points="2306.95,-480.808 2309.81,-470.605 2301.21,-476.801 2306.95,-480.808"/>
</g>
<!-- 24 -->
<g id="node25" class="node"><title>24</title>
<ellipse fill="white" stroke="black" cx="1014" cy="-455.002" rx="18.2703" ry="18.2703"/>
<text text-anchor="middle" x="1014" y="-452.802" font-family="Times New Roman,serif" font-size="9.00">24</text>
</g>
<!-- 3&#45;&gt;24 -->
<g id="edge16" class="edge"><title>3&#45;&gt;24</title>
<path fill="none" stroke="green" stroke-width="0.184864" d="M2161.74,-664.058C2145.45,-646.112 2103.99,-603.442 2060,-582.156 1872.46,-491.415 1190.44,-462.273 1042.46,-456.954"/>
<polygon fill="green" stroke="green" stroke-width="0.184864" points="1042.48,-453.453 1032.37,-456.599 1042.24,-460.449 1042.48,-453.453"/>
</g>
<!-- 25 -->
<g id="node26" class="node"><title>25</title>
<ellipse fill="white" stroke="black" cx="2054" cy="-455.002" rx="18.2703" ry="18.2703"/>
<text text-anchor="middle" x="2054" y="-452.802" font-family="Times New Roman,serif" font-size="9.00">25</text>
</g>
<!-- 3&#45;&gt;25 -->
<g id="edge17" class="edge"><title>3&#45;&gt;25</title>
<path fill="none" stroke="red" stroke-width="0.840165" d="M2166.52,-664.008C2158.88,-639.145 2133.97,-563.654 2098,-509.387 2090.51,-498.082 2081.06,-486.363 2072.85,-476.795"/>
<polygon fill="red" stroke="red" stroke-width="0.840165" points="2075.25,-474.221 2066.02,-469.005 2069.98,-478.833 2075.25,-474.221"/>
</g>
<!-- 26 -->
<g id="node27" class="node"><title>26</title>
<ellipse fill="white" stroke="black" cx="2213" cy="-455.002" rx="18.2703" ry="18.2703"/>
<text text-anchor="middle" x="2213" y="-452.802" font-family="Times New Roman,serif" font-size="9.00">26</text>
</g>
<!-- 3&#45;&gt;26 -->
<g id="edge18" class="edge"><title>3&#45;&gt;26</title>
<path fill="none" stroke="green" stroke-width="0.161081" d="M2169.79,-663.989C2170.78,-653.487 2172.53,-634.869 2174,-618.926 2178.5,-570.247 2169.82,-556.171 2184,-509.387 2187.13,-499.049 2192.4,-488.437 2197.6,-479.427"/>
<polygon fill="green" stroke="green" stroke-width="0.161081" points="2200.7,-481.06 2202.89,-470.694 2194.71,-477.433 2200.7,-481.06"/>
</g>
<!-- 27 -->
<g id="node28" class="node"><title>27</title>
<ellipse fill="white" stroke="black" cx="1847" cy="-163.924" rx="18.2703" ry="18.2703"/>
<text text-anchor="middle" x="1847" y="-161.724" font-family="Times New Roman,serif" font-size="9.00">27</text>
</g>
<!-- 3&#45;&gt;27 -->
<g id="edge19" class="edge"><title>3&#45;&gt;27</title>
<path fill="none" stroke="green" stroke-width="0.918713" d="M2179.66,-668.458C2242.78,-645.029 2561.84,-517.568 2478,-363.848 2449.4,-311.406 2420.51,-313.139 2365,-291.078 2283.91,-258.853 2255.34,-280.924 2172,-255.078 2133.46,-243.127 2127.34,-230.888 2089,-218.309 2013.5,-193.533 1920.98,-176.72 1875.29,-169.276"/>
<polygon fill="green" stroke="green" stroke-width="0.918713" points="1875.67,-165.791 1865.24,-167.667 1874.56,-172.703 1875.67,-165.791"/>
</g>
<!-- 4 -->
<g id="node5" class="node"><title>4</title>
<polygon fill="lightgray" stroke="black" points="2071.5,-1191.7 2050.5,-1191.7 2050.5,-1173.7 2071.5,-1173.7 2071.5,-1191.7"/>
<text text-anchor="middle" x="2061" y="-1180.5" font-family="Times New Roman,serif" font-size="9.00">4</text>
</g>
<!-- 4&#45;&gt;11 -->
<g id="edge21" class="edge"><title>4&#45;&gt;11</title>
<path fill="none" stroke="green" stroke-width="1.25303" d="M2062.08,-1173.57C2064.78,-1153.13 2071.97,-1098.84 2076.38,-1065.54"/>
<polygon fill="green" stroke="green" stroke-width="1.25303" points="2079.86,-1065.91 2077.7,-1055.53 2072.92,-1064.99 2079.86,-1065.91"/>
</g>
<!-- 28 -->
<g id="node29" class="node"><title>28</title>
<ellipse fill="white" stroke="black" cx="2156" cy="-1109.93" rx="18.2703" ry="18.2703"/>
<text text-anchor="middle" x="2156" y="-1107.73" font-family="Times New Roman,serif" font-size="9.00">28</text>
</g>
<!-- 4&#45;&gt;28 -->
<g id="edge20" class="edge"><title>4&#45;&gt;28</title>
<path fill="none" stroke="red" stroke-width="0.572588" d="M2071.53,-1173.85C2086.43,-1162.76 2114.02,-1142.2 2133.61,-1127.61"/>
<polygon fill="red" stroke="red" stroke-width="0.572588" points="2135.79,-1130.35 2141.72,-1121.57 2131.61,-1124.73 2135.79,-1130.35"/>
</g>
<!-- 29 -->
<g id="node30" class="node"><title>29</title>
<ellipse fill="white" stroke="black" cx="741" cy="-163.924" rx="18.2703" ry="18.2703"/>
<text text-anchor="middle" x="741" y="-161.724" font-family="Times New Roman,serif" font-size="9.00">29</text>
</g>
<!-- 4&#45;&gt;29 -->
<g id="edge22" class="edge"><title>4&#45;&gt;29</title>
<path fill="none" stroke="red" stroke-width="0.626191" d="M2054.06,-1173.52C2050.55,-1170 2045.97,-1166.25 2041,-1164.31 1894.4,-1107.37 781.342,-1152.88 626,-1128.31 486.803,-1106.3 322,-1179.09 322,-1038.16 322,-1038.16 322,-1038.16 322,-381.233 322,-205.055 618.103,-172.221 712.472,-166.23"/>
<polygon fill="red" stroke="red" stroke-width="0.626191" points="712.675,-169.725 722.455,-165.651 712.269,-162.736 712.675,-169.725"/>
</g>
<!-- 30 -->
<g id="node31" class="node"><title>30</title>
<ellipse fill="white" stroke="black" cx="1723" cy="-382.233" rx="18.2703" ry="18.2703"/>
<text text-anchor="middle" x="1723" y="-380.033" font-family="Times New Roman,serif" font-size="9.00">30</text>
</g>
<!-- 4&#45;&gt;30 -->
<g id="edge23" class="edge"><title>4&#45;&gt;30</title>
<path fill="none" stroke="green" stroke-width="0.796617" d="M2071.53,-1181.72C2154.49,-1181.79 2700.89,-1180.3 2749,-1128.31 2760.1,-1116.32 2752.31,-1107.55 2749,-1091.54 2679.92,-757.065 2652.5,-589.325 2347,-436.617 2240.52,-383.389 1859.63,-382.161 1751.69,-382.919"/>
<polygon fill="green" stroke="green" stroke-width="0.796617" points="1751.53,-379.421 1741.56,-383.003 1751.59,-386.42 1751.53,-379.421"/>
</g>
<!-- 31 -->
<g id="node32" class="node"><title>31</title>
<ellipse fill="white" stroke="black" cx="741" cy="-236.693" rx="18.2703" ry="18.2703"/>
<text text-anchor="middle" x="741" y="-234.493" font-family="Times New Roman,serif" font-size="9.00">31</text>
</g>
<!-- 4&#45;&gt;31 -->
<g id="edge24" class="edge"><title>4&#45;&gt;31</title>
<path fill="none" stroke="red" stroke-width="0.887935" d="M2054.06,-1173.53C2050.54,-1170 2045.97,-1166.25 2041,-1164.31 1908.13,-1112.5 896.7,-1161.48 758,-1128.31 680.006,-1109.66 436,-1045.58 436,-965.389 436,-965.389 436,-965.389 436,-745.08 436,-688.668 425.116,-675.253 422,-618.926 415.669,-504.482 412.987,-468.382 460,-363.848 476.964,-326.129 483.101,-313.272 518,-291.078 579.601,-251.904 667.376,-241.46 712.218,-238.687"/>
<polygon fill="red" stroke="red" stroke-width="0.887935" points="712.595,-242.172 722.395,-238.146 712.223,-235.182 712.595,-242.172"/>
</g>
<!-- 32 -->
<g id="node33" class="node"><title>32</title>
<ellipse fill="white" stroke="black" cx="360" cy="-91.1543" rx="18.2703" ry="18.2703"/>
<text text-anchor="middle" x="360" y="-88.9543" font-family="Times New Roman,serif" font-size="9.00">32</text>
</g>
<!-- 4&#45;&gt;32 -->
<g id="edge25" class="edge"><title>4&#45;&gt;32</title>
<path fill="none" stroke="green" stroke-width="0.827459" d="M2054.06,-1173.52C2050.55,-1170 2045.97,-1166.25 2041,-1164.31 1894.4,-1107.37 779.097,-1164.31 626,-1128.31 228.626,-1034.87 208,-718.676 208,-310.463 208,-310.463 208,-310.463 208,-235.693 208,-167.338 290.263,-121.872 333.753,-102.612"/>
<polygon fill="green" stroke="green" stroke-width="0.827459" points="335.336,-105.742 343.153,-98.5897 332.582,-99.3059 335.336,-105.742"/>
</g>
<!-- 33 -->
<g id="node34" class="node"><title>33</title>
<ellipse fill="white" stroke="black" cx="2016" cy="-891.619" rx="18.2703" ry="18.2703"/>
<text text-anchor="middle" x="2016" y="-889.419" font-family="Times New Roman,serif" font-size="9.00">33</text>
</g>
<!-- 4&#45;&gt;33 -->
<g id="edge26" class="edge"><title>4&#45;&gt;33</title>
<path fill="none" stroke="green" stroke-width="1.04463" d="M2059.75,-1173.66C2054.02,-1136.86 2030.13,-983.406 2020.28,-920.106"/>
<polygon fill="green" stroke="green" stroke-width="1.04463" points="2023.71,-919.408 2018.72,-910.066 2016.8,-920.485 2023.71,-919.408"/>
</g>
<!-- 5 -->
<g id="node6" class="node"><title>5</title>
<polygon fill="lightgray" stroke="black" points="1622.5,-900.619 1601.5,-900.619 1601.5,-882.619 1622.5,-882.619 1622.5,-900.619"/>
<text text-anchor="middle" x="1612" y="-889.419" font-family="Times New Roman,serif" font-size="9.00">5</text>
</g>
<!-- 5&#45;&gt;17 -->
<g id="edge30" class="edge"><title>5&#45;&gt;17</title>
<path fill="none" stroke="red" stroke-width="0.991984" d="M1613.72,-882.304C1619.33,-855.045 1637.46,-765.885 1650,-691.696 1658.01,-644.333 1665.84,-588.965 1670.28,-556.498"/>
<polygon fill="red" stroke="red" stroke-width="0.991984" points="1673.77,-556.79 1671.65,-546.41 1666.84,-555.848 1673.77,-556.79"/>
</g>
<!-- 5&#45;&gt;30 -->
<g id="edge27" class="edge"><title>5&#45;&gt;30</title>
<path fill="none" stroke="red" stroke-width="0.607405" d="M1616,-882.596C1624.42,-866.147 1645.18,-827.847 1669,-800.465 1725.95,-735.003 1818,-761.081 1818,-674.311 1818,-674.311 1818,-674.311 1818,-526.772 1818,-474.006 1772.81,-425.743 1744.76,-400.874"/>
<polygon fill="red" stroke="red" stroke-width="0.607405" points="1746.88,-398.08 1737.02,-394.211 1742.32,-403.386 1746.88,-398.08"/>
</g>
<!-- 5&#45;&gt;31 -->
<g id="edge29" class="edge"><title>5&#45;&gt;31</title>
<path fill="none" stroke="green" stroke-width="0.707884" d="M1601.3,-890.888C1546.85,-891.97 1295.49,-893.557 1101,-837.235 1030.98,-816.957 1018.66,-798.139 954,-764.465 894.239,-733.341 865.517,-742.276 821,-691.696 710.402,-566.032 727.126,-342.642 736.947,-265.105"/>
<polygon fill="green" stroke="green" stroke-width="0.707884" points="740.421,-265.533 738.273,-255.158 733.483,-264.608 740.421,-265.533"/>
</g>
<!-- 5&#45;&gt;32 -->
<g id="edge31" class="edge"><title>5&#45;&gt;32</title>
<path fill="none" stroke="green" stroke-width="0.774409" d="M1601.21,-890.693C1541.54,-890.886 1246.4,-889.066 1013,-837.235 827.911,-796.132 789.646,-757.946 612,-691.696 459.489,-634.819 284,-691.543 284,-528.772 284,-528.772 284,-528.772 284,-235.693 284,-194.229 287.534,-181.6 308,-145.539 315.634,-132.089 327.475,-119.561 337.931,-110.025"/>
<polygon fill="green" stroke="green" stroke-width="0.774409" points="340.34,-112.569 345.564,-103.351 335.732,-107.299 340.34,-112.569"/>
</g>
<!-- 34 -->
<g id="node35" class="node"><title>34</title>
<ellipse fill="white" stroke="black" cx="1696" cy="-818.85" rx="18.2703" ry="18.2703"/>
<text text-anchor="middle" x="1696" y="-816.65" font-family="Times New Roman,serif" font-size="9.00">34</text>
</g>
<!-- 5&#45;&gt;34 -->
<g id="edge28" class="edge"><title>5&#45;&gt;34</title>
<path fill="none" stroke="green" stroke-width="0.362281" d="M1621.64,-882.501C1634.45,-871.706 1657.46,-852.319 1674.5,-837.96"/>
<polygon fill="green" stroke="green" stroke-width="0.362281" points="1676.93,-840.495 1682.32,-831.375 1672.42,-835.142 1676.93,-840.495"/>
</g>
<!-- 6 -->
<g id="node7" class="node"><title>6</title>
<polygon fill="lightgray" stroke="black" points="788.5,-1118.93 767.5,-1118.93 767.5,-1100.93 788.5,-1100.93 788.5,-1118.93"/>
<text text-anchor="middle" x="778" y="-1107.73" font-family="Times New Roman,serif" font-size="9.00">6</text>
</g>
<!-- 6&#45;&gt;11 -->
<g id="edge32" class="edge"><title>6&#45;&gt;11</title>
<path fill="none" stroke="red" stroke-width="0.680682" d="M788.865,-1108.34C902.434,-1102.16 1871.71,-1049.48 2051.4,-1039.71"/>
<polygon fill="red" stroke="red" stroke-width="0.680682" points="2051.84,-1043.19 2061.64,-1039.16 2051.46,-1036.2 2051.84,-1043.19"/>
</g>
<!-- 6&#45;&gt;12 -->
<g id="edge33" class="edge"><title>6&#45;&gt;12</title>
<path fill="none" stroke="red" stroke-width="1.07666" d="M774.878,-1100.78C766.017,-1076.37 742.684,-1001.99 764,-946.004 809.048,-827.7 931.871,-728.119 983.092,-690.447"/>
<polygon fill="red" stroke="red" stroke-width="1.07666" points="985.196,-693.245 991.234,-684.539 981.085,-687.579 985.196,-693.245"/>
</g>
<!-- 6&#45;&gt;13 -->
<g id="edge37" class="edge"><title>6&#45;&gt;13</title>
<path fill="none" stroke="green" stroke-width="0.645551" d="M788.676,-1107.93C841.999,-1102.92 1084.79,-1079.78 1283,-1055.54 1523.88,-1026.09 1813.98,-983.12 1903.99,-969.613"/>
<polygon fill="green" stroke="green" stroke-width="0.645551" points="1904.59,-973.063 1913.96,-968.115 1903.55,-966.14 1904.59,-973.063"/>
</g>
<!-- 6&#45;&gt;17 -->
<g id="edge36" class="edge"><title>6&#45;&gt;17</title>
<path fill="none" stroke="green" stroke-width="0.606688" d="M788.716,-1107.1C875.824,-1092.11 1468.68,-988.247 1631,-910.004 1677.96,-887.367 1695.54,-881.553 1723,-837.235 1744.57,-802.425 1742,-788.029 1742,-747.08 1742,-747.08 1742,-747.08 1742,-672.311 1742,-625.284 1711.82,-577.211 1691.67,-550.357"/>
<polygon fill="green" stroke="green" stroke-width="0.606688" points="1694.42,-548.185 1685.54,-542.412 1688.88,-552.465 1694.42,-548.185"/>
</g>
<!-- 6&#45;&gt;30 -->
<g id="edge34" class="edge"><title>6&#45;&gt;30</title>
<path fill="none" stroke="green" stroke-width="0.273492" d="M788.618,-1106.02C849.709,-1088.93 1160.73,-996.685 1363,-837.235 1530.08,-705.52 1666.81,-481.552 1709.3,-407.674"/>
<polygon fill="green" stroke="green" stroke-width="0.273492" points="1712.53,-409.073 1714.44,-398.653 1706.45,-405.605 1712.53,-409.073"/>
</g>
<!-- 6&#45;&gt;31 -->
<g id="edge35" class="edge"><title>6&#45;&gt;31</title>
<path fill="none" stroke="red" stroke-width="1.01821" d="M767.247,-1104.41C701.821,-1076.11 360,-916.665 360,-674.311 360,-674.311 360,-674.311 360,-454.002 360,-369.04 390.071,-339.333 460,-291.078 500.954,-262.818 649.994,-246.088 712.794,-240.155"/>
<polygon fill="red" stroke="red" stroke-width="1.01821" points="713.153,-243.636 722.79,-239.233 712.511,-236.666 713.153,-243.636"/>
</g>
<!-- 6&#45;&gt;32 -->
<g id="edge38" class="edge"><title>6&#45;&gt;32</title>
<path fill="none" stroke="green" stroke-width="0.161349" d="M767.301,-1109.32C681.895,-1111.85 114,-1117.51 114,-819.85 114,-819.85 114,-819.85 114,-745.08 114,-643.182 38,-630.67 38,-528.772 38,-528.772 38,-528.772 38,-235.693 38,-107.967 251.972,-93.096 331.067,-91.9623"/>
<polygon fill="green" stroke="green" stroke-width="0.161349" points="331.324,-95.4605 341.296,-91.8831 331.269,-88.4607 331.324,-95.4605"/>
</g>
<!-- 7 -->
<g id="node8" class="node"><title>7</title>
<polygon fill="lightgray" stroke="black" points="921.5,-900.619 900.5,-900.619 900.5,-882.619 921.5,-882.619 921.5,-900.619"/>
<text text-anchor="middle" x="911" y="-889.419" font-family="Times New Roman,serif" font-size="9.00">7</text>
</g>
<!-- 7&#45;&gt;32 -->
<g id="edge40" class="edge"><title>7&#45;&gt;32</title>
<path fill="none" stroke="red" stroke-width="0.943921" d="M900.296,-887.539C839.32,-869.964 537.143,-782.526 498,-764.465 388.841,-714.099 348.515,-709.964 270,-618.926 171.912,-505.192 132,-460.652 132,-310.463 132,-310.463 132,-310.463 132,-235.693 132,-142.369 270.494,-107.325 331.603,-96.404"/>
<polygon fill="red" stroke="red" stroke-width="0.943921" points="332.452,-99.8103 341.727,-94.6904 331.283,-92.9085 332.452,-99.8103"/>
</g>
<!-- 7&#45;&gt;34 -->
<g id="edge39" class="edge"><title>7&#45;&gt;34</title>
<path fill="none" stroke="red" stroke-width="0.182437" d="M921.503,-889.673C1003.18,-882.309 1537.03,-834.181 1667.34,-822.433"/>
<polygon fill="red" stroke="red" stroke-width="0.182437" points="1668.04,-825.884 1677.69,-821.501 1667.42,-818.913 1668.04,-825.884"/>
</g>
<!-- 8 -->
<g id="node9" class="node"><title>8</title>
<polygon fill="yellow" stroke="black" points="2053,-1273.47 2032,-1255.47 2053,-1237.47 2074,-1255.47 2053,-1273.47"/>
<text text-anchor="middle" x="2053" y="-1253.27" font-family="Times New Roman,serif" font-size="9.00">8</text>
</g>
<!-- 8&#45;&gt;11 -->
<g id="edge42" class="edge"><title>8&#45;&gt;11</title>
<path fill="none" stroke="green" stroke-width="1.25617" d="M2060.17,-1243.54C2066.62,-1233.11 2075.7,-1216.7 2080,-1201.08 2092.67,-1155.02 2088.62,-1098.81 2084.4,-1065.9"/>
<polygon fill="green" stroke="green" stroke-width="1.25617" points="2087.82,-1065.11 2082.99,-1055.68 2080.89,-1066.07 2087.82,-1065.11"/>
</g>
<!-- 8&#45;&gt;12 -->
<g id="edge43" class="edge"><title>8&#45;&gt;12</title>
<path fill="none" stroke="green" stroke-width="1.45835" d="M2033.16,-1254.47C1858.37,-1254.27 585.175,-1248.72 474,-1128.31 394.856,-1042.59 454.38,-956.6 536,-873.235 665.653,-740.81 897.193,-691.985 977.578,-678.552"/>
<polygon fill="green" stroke="green" stroke-width="1.45835" points="978.577,-681.936 987.891,-676.887 977.461,-675.026 978.577,-681.936"/>
</g>
<!-- 8&#45;&gt;14 -->
<g id="edge48" class="edge"><title>8&#45;&gt;14</title>
<path fill="none" stroke="green" stroke-width="0.714152" d="M2063.81,-1246.5C2069.28,-1242.93 2076.18,-1239.08 2083,-1237.08 2252.27,-1187.44 2709.98,-1260.72 2876,-1201.08 2938.78,-1178.53 2996,-1177.64 2996,-1110.93 2996,-1110.93 2996,-1110.93 2996,-235.693 2996,-218.699 3051.29,-209.203 2868,-145.539 2782.29,-115.769 2124.92,-96.7745 1978.74,-92.893"/>
<polygon fill="green" stroke="green" stroke-width="0.714152" points="1978.47,-89.3846 1968.38,-92.6205 1978.28,-96.3822 1978.47,-89.3846"/>
</g>
<!-- 8&#45;&gt;17 -->
<g id="edge46" class="edge"><title>8&#45;&gt;17</title>
<path fill="none" stroke="green" stroke-width="0.713927" d="M2034.24,-1253.46C1972.56,-1249.05 1780,-1226.06 1780,-1110.93 1780,-1110.93 1780,-1110.93 1780,-672.311 1780,-617.094 1728.61,-569.183 1697.4,-545.172"/>
<polygon fill="green" stroke="green" stroke-width="0.713927" points="1699.3,-542.222 1689.19,-539.048 1695.11,-547.833 1699.3,-542.222"/>
</g>
<!-- 8&#45;&gt;27 -->
<g id="edge50" class="edge"><title>8&#45;&gt;27</title>
<path fill="none" stroke="green" stroke-width="0.179271" d="M2063.81,-1246.51C2069.28,-1242.94 2076.19,-1239.09 2083,-1237.08 2241.34,-1190.38 2673.2,-1265.95 2825,-1201.08 2878.53,-1178.21 2920,-1169.14 2920,-1110.93 2920,-1110.93 2920,-1110.93 2920,-526.772 2920,-299.536 2045.02,-187.629 1875.32,-168.062"/>
<polygon fill="green" stroke="green" stroke-width="0.179271" points="1875.51,-164.561 1865.17,-166.906 1874.71,-171.516 1875.51,-164.561"/>
</g>
<!-- 8&#45;&gt;28 -->
<g id="edge41" class="edge"><title>8&#45;&gt;28</title>
<path fill="none" stroke="green" stroke-width="0.579892" d="M2064.41,-1247.08C2082.24,-1235.34 2115.55,-1212.58 2124,-1201.08 2137.77,-1182.33 2146.05,-1157.11 2150.73,-1138.12"/>
<polygon fill="green" stroke="green" stroke-width="0.579892" points="2154.16,-1138.81 2152.97,-1128.28 2147.34,-1137.26 2154.16,-1138.81"/>
</g>
<!-- 8&#45;&gt;29 -->
<g id="edge44" class="edge"><title>8&#45;&gt;29</title>
<path fill="none" stroke="green" stroke-width="0.407502" d="M2033.02,-1254.18C1877.33,-1251.85 856.504,-1235.47 550,-1201.08 336.894,-1177.17 76,-1325.37 76,-1110.93 76,-1110.93 76,-1110.93 76,-526.772 76,-355.229 159.4,-304.01 308,-218.309 377.301,-178.341 627.057,-167.984 712.274,-165.584"/>
<polygon fill="green" stroke="green" stroke-width="0.407502" points="712.599,-169.076 722.503,-165.312 712.413,-162.079 712.599,-169.076"/>
</g>
<!-- 8&#45;&gt;30 -->
<g id="edge45" class="edge"><title>8&#45;&gt;30</title>
<path fill="none" stroke="red" stroke-width="0.870172" d="M2064.2,-1246.65C2069.64,-1243.21 2076.42,-1239.42 2083,-1237.08 2252.41,-1176.98 2882,-1290.68 2882,-1110.93 2882,-1110.93 2882,-1110.93 2882,-817.85 2882,-542.974 2658.21,-515.839 2395,-436.617 2271.63,-399.486 1863.42,-386.736 1751.56,-383.895"/>
<polygon fill="red" stroke="red" stroke-width="0.870172" points="1751.48,-380.392 1741.39,-383.644 1751.3,-387.39 1751.48,-380.392"/>
</g>
<!-- 8&#45;&gt;32 -->
<g id="edge47" class="edge"><title>8&#45;&gt;32</title>
<path fill="none" stroke="red" stroke-width="1.03104" d="M2033.2,-1254.38C1832.62,-1253.47 173.374,-1244.59 80,-1201.08 31.4427,-1178.46 0,-1164.5 0,-1110.93 0,-1110.93 0,-1110.93 0,-235.693 0,-189.437 14.0763,-172.023 52,-145.539 97.0976,-114.045 263.9,-98.9543 331.385,-94.0367"/>
<polygon fill="red" stroke="red" stroke-width="1.03104" points="331.965,-97.5045 341.694,-93.3089 331.472,-90.5219 331.965,-97.5045"/>
</g>
<!-- 35 -->
<g id="node36" class="node"><title>35</title>
<ellipse fill="white" stroke="black" cx="1996" cy="-1182.7" rx="18.2703" ry="18.2703"/>
<text text-anchor="middle" x="1996" y="-1180.5" font-family="Times New Roman,serif" font-size="9.00">35</text>
</g>
<!-- 8&#45;&gt;35 -->
<g id="edge49" class="edge"><title>8&#45;&gt;35</title>
<path fill="none" stroke="green" stroke-width="0.267898" d="M2044.83,-1244.33C2036.7,-1234.23 2023.96,-1218.42 2013.54,-1205.47"/>
<polygon fill="green" stroke="green" stroke-width="0.267898" points="2016.09,-1203.06 2007.09,-1197.46 2010.64,-1207.45 2016.09,-1203.06"/>
</g>
<!-- 9 -->
<g id="node10" class="node"><title>9</title>
<ellipse fill="lightblue" stroke="black" cx="2107" cy="-1255.47" rx="14.7" ry="14.7"/>
<text text-anchor="middle" x="2107" y="-1253.27" font-family="Times New Roman,serif" font-size="9.00">9</text>
</g>
<!-- 10 -->
<g id="node11" class="node"><title>10</title>
<ellipse fill="lightblue" stroke="black" cx="1212" cy="-18.3848" rx="18.2703" ry="18.2703"/>
<text text-anchor="middle" x="1212" y="-16.1848" font-family="Times New Roman,serif" font-size="9.00">10</text>
</g>
<!-- 11&#45;&gt;11 -->
<g id="edge51" class="edge"><title>11&#45;&gt;11</title>
<path fill="none" stroke="red" stroke-width="0.3042" d="M2094.19,-1048.91C2105.18,-1053.31 2116.38,-1049.39 2116.38,-1037.16 2116.38,-1028.75 2111.09,-1024.27 2104.21,-1023.72"/>
<polygon fill="red" stroke="red" stroke-width="0.3042" points="2103.47,-1020.29 2094.19,-1025.4 2104.63,-1027.19 2103.47,-1020.29"/>
</g>
<!-- 11&#45;&gt;13 -->
<g id="edge52" class="edge"><title>11&#45;&gt;13</title>
<path fill="none" stroke="red" stroke-width="0.197948" d="M2062.82,-1029.88C2036.46,-1018.71 1986.62,-995.115 1956.53,-979.774"/>
<polygon fill="red" stroke="red" stroke-width="0.197948" points="1958,-976.594 1947.51,-975.11 1954.78,-982.812 1958,-976.594"/>
</g>
<!-- 11&#45;&gt;14 -->
<g id="edge53" class="edge"><title>11&#45;&gt;14</title>
<path fill="none" stroke="red" stroke-width="0.963884" d="M2098.36,-1036.03C2180.68,-1035.18 2515.71,-1028.93 2608,-982.774 2647.32,-963.111 2648.26,-944.897 2675,-910.004 2718.55,-853.187 2733.09,-835.214 2744,-764.465 2781.1,-523.987 2834.75,-424.779 2706,-218.309 2673.2,-165.704 2645.92,-164.818 2587,-145.539 2471.39,-107.71 2086.66,-95.5222 1978.51,-92.801"/>
<polygon fill="red" stroke="red" stroke-width="0.963884" points="1978.45,-89.2985 1968.36,-92.5534 1978.28,-96.2965 1978.45,-89.2985"/>
</g>
<!-- 11&#45;&gt;15 -->
<g id="edge54" class="edge"><title>11&#45;&gt;15</title>
<path fill="none" stroke="green" stroke-width="1.16245" d="M2097.59,-1031.76C2113.92,-1027.83 2138.97,-1022.18 2161,-1018.77 2244.39,-1005.9 2471.09,-1032.85 2539,-982.774 2623.6,-920.386 2609.38,-867.54 2630,-764.465 2666.57,-581.701 2644.96,-488.064 2506,-363.848 2456.49,-319.595 2420.93,-356.448 2361,-327.848 2360.7,-327.702 2360.39,-327.552 2360.09,-327.398"/>
<polygon fill="green" stroke="green" stroke-width="1.16245" points="2361.87,-324.385 2351.52,-322.09 2358.18,-330.334 2361.87,-324.385"/>
</g>
<!-- 12&#45;&gt;10 -->
<g id="edge167" class="edge"><title>12&#45;&gt;10</title>
<path fill="none" stroke="red" stroke-width="0.730119" d="M1009.38,-655.192C1021.2,-595.161 1060,-397.081 1060,-383.233 1060,-383.233 1060,-383.233 1060,-308.463 1060,-195.832 1151.51,-83.9451 1192.52,-39.4582"/>
<polygon fill="red" stroke="red" stroke-width="0.730119" points="1195.28,-41.6405 1199.56,-31.9508 1190.17,-36.8534 1195.28,-41.6405"/>
</g>
<!-- 12&#45;&gt;14 -->
<g id="edge56" class="edge"><title>12&#45;&gt;14</title>
<path fill="none" stroke="green" stroke-width="0.146257" d="M1012.56,-655.844C1045.87,-573.147 1198.72,-204.788 1302,-145.539 1356.3,-114.388 1803.03,-97.1393 1921.34,-93.089"/>
<polygon fill="green" stroke="green" stroke-width="0.146257" points="1921.56,-96.5836 1931.44,-92.7483 1921.33,-89.5876 1921.56,-96.5836"/>
</g>
<!-- 12&#45;&gt;16 -->
<g id="edge55" class="edge"><title>12&#45;&gt;16</title>
<path fill="none" stroke="green" stroke-width="1.62991" d="M1023.35,-667.107C1064.1,-654.889 1166.13,-624.294 1215.03,-609.628"/>
<polygon fill="green" stroke="green" stroke-width="1.62991" points="1216.05,-612.978 1224.62,-606.753 1214.04,-606.273 1216.05,-612.978"/>
</g>
<!-- 12&#45;&gt;18 -->
<g id="edge57" class="edge"><title>12&#45;&gt;18</title>
<path fill="none" stroke="green" stroke-width="1.65582" d="M1023.86,-678.186C1069.66,-689.27 1190.43,-721.288 1244.89,-736.655"/>
<polygon fill="green" stroke="green" stroke-width="1.65582" points="1243.98,-740.035 1254.56,-739.409 1245.9,-733.303 1243.98,-740.035"/>
</g>
<!-- 13&#45;&gt;11 -->
<g id="edge58" class="edge"><title>13&#45;&gt;11</title>
<path fill="none" stroke="green" stroke-width="0.422839" d="M1949.15,-971.655C1975.61,-982.865 2025.77,-1006.61 2055.83,-1021.95"/>
<polygon fill="green" stroke="green" stroke-width="0.422839" points="2054.34,-1025.12 2064.83,-1026.61 2057.56,-1018.91 2054.34,-1025.12"/>
</g>
<!-- 13&#45;&gt;12 -->
<g id="edge59" class="edge"><title>13&#45;&gt;12</title>
<path fill="none" stroke="green" stroke-width="0.184739" d="M1913.54,-963.049C1835.47,-961.368 1524.91,-952.234 1274,-910.004 1146.36,-888.521 1071.27,-939.56 992,-837.235 961.142,-797.403 979.8,-734.493 994.148,-699.648"/>
<polygon fill="green" stroke="green" stroke-width="0.184739" points="997.476,-700.768 998.219,-690.199 991.048,-697.998 997.476,-700.768"/>
</g>
<!-- 13&#45;&gt;13 -->
<g id="edge61" class="edge"><title>13&#45;&gt;13</title>
<path fill="none" stroke="green" stroke-width="1.21536" d="M1946.19,-976.145C1957.18,-980.542 1968.38,-976.623 1968.38,-964.389 1968.38,-955.978 1963.09,-951.497 1956.21,-950.947"/>
<polygon fill="green" stroke="green" stroke-width="1.21536" points="1955.47,-947.521 1946.19,-952.632 1956.63,-954.424 1955.47,-947.521"/>
</g>
<!-- 13&#45;&gt;15 -->
<g id="edge63" class="edge"><title>13&#45;&gt;15</title>
<path fill="none" stroke="green" stroke-width="1.33007" d="M1948.96,-956.902C1958.56,-953.378 1970.85,-949.118 1982,-946.004 2055.97,-925.354 2077.85,-933.382 2151,-910.004 2228.51,-885.234 2256.59,-889.445 2319,-837.235 2408.34,-762.498 2411.8,-723.051 2464,-618.926 2501.76,-543.604 2536.08,-518.447 2516,-436.617 2507.31,-401.182 2506.05,-387.186 2478,-363.848 2436.18,-329.048 2409.44,-352.627 2361,-327.848 2360.7,-327.694 2360.4,-327.536 2360.1,-327.375"/>
<polygon fill="green" stroke="green" stroke-width="1.33007" points="2361.91,-324.377 2351.59,-321.952 2358.14,-330.279 2361.91,-324.377"/>
</g>
<!-- 13&#45;&gt;17 -->
<g id="edge60" class="edge"><title>13&#45;&gt;17</title>
<path fill="none" stroke="green" stroke-width="0.870098" d="M1932,-945.711C1932,-918.62 1932,-865.204 1932,-819.85 1932,-819.85 1932,-819.85 1932,-672.311 1932,-568.405 1770.23,-539.052 1702.88,-531.334"/>
<polygon fill="green" stroke="green" stroke-width="0.870098" points="1702.87,-527.813 1692.55,-530.237 1702.13,-534.774 1702.87,-527.813"/>
</g>
<!-- 13&#45;&gt;32 -->
<g id="edge62" class="edge"><title>13&#45;&gt;32</title>
<path fill="none" stroke="red" stroke-width="0.327464" d="M1913.28,-963.187C1786.72,-961.643 1057.19,-950.655 840,-910.004 511.636,-848.545 346.288,-887.038 147,-618.926 63.0771,-506.02 76,-451.142 76,-310.463 76,-310.463 76,-310.463 76,-235.693 76,-123.253 258.911,-98.7431 331.267,-93.5269"/>
<polygon fill="red" stroke="red" stroke-width="0.327464" points="331.742,-97.0036 341.496,-92.8668 331.292,-90.0181 331.742,-97.0036"/>
</g>
<!-- 13&#45;&gt;33 -->
<g id="edge64" class="edge"><title>13&#45;&gt;33</title>
<path fill="none" stroke="red" stroke-width="0.442724" d="M1943.09,-949.407C1955.62,-937.511 1975.81,-920.446 1991.89,-908.132"/>
<polygon fill="red" stroke="red" stroke-width="0.442724" points="1994.4,-910.626 2000.33,-901.843 1990.22,-905.014 1994.4,-910.626"/>
</g>
<!-- 14&#45;&gt;10 -->
<g id="edge169" class="edge"><title>14&#45;&gt;10</title>
<path fill="none" stroke="green" stroke-width="0.372655" d="M1931.76,-88.405C1832.86,-78.9214 1361.03,-33.6756 1240.22,-22.0913"/>
<polygon fill="green" stroke="green" stroke-width="0.372655" points="1240.55,-18.607 1230.27,-21.1363 1239.89,-25.575 1240.55,-18.607"/>
</g>
<!-- 15&#45;&gt;10 -->
<g id="edge170" class="edge"><title>15&#45;&gt;10</title>
<path fill="none" stroke="green" stroke-width="0.915291" d="M2340.03,-291.181C2341.15,-280.744 2342.44,-267.166 2343,-255.078 2345.4,-203.748 2346.62,-177.006 2306,-145.539 2187.61,-53.8342 2125.21,-94.2119 1977,-72.7696 1691.59,-31.4787 1341.48,-21.8427 1240.49,-19.8548"/>
<polygon fill="green" stroke="green" stroke-width="0.915291" points="1240.52,-16.3549 1230.46,-19.6669 1240.39,-23.3537 1240.52,-16.3549"/>
</g>
<!-- 15&#45;&gt;14 -->
<g id="edge72" class="edge"><title>15&#45;&gt;14</title>
<path fill="none" stroke="green" stroke-width="0.499748" d="M2337.26,-291.009C2334.77,-256.547 2323.83,-180.113 2276,-145.539 2228.57,-111.254 2049.58,-97.7056 1978.93,-93.6204"/>
<polygon fill="green" stroke="green" stroke-width="0.499748" points="1978.74,-90.1044 1968.56,-93.0443 1978.35,-97.0936 1978.74,-90.1044"/>
</g>
<!-- 15&#45;&gt;17 -->
<g id="edge70" class="edge"><title>15&#45;&gt;17</title>
<path fill="none" stroke="red" stroke-width="0.838556" d="M2324.39,-322.212C2287.88,-353.002 2183.56,-436.214 2081,-473.387 1945.82,-522.383 1770.9,-527.308 1702.86,-527.196"/>
<polygon fill="red" stroke="red" stroke-width="0.838556" points="1702.53,-523.694 1692.51,-527.137 1702.49,-530.694 1702.53,-523.694"/>
</g>
<!-- 15&#45;&gt;31 -->
<g id="edge69" class="edge"><title>15&#45;&gt;31</title>
<path fill="none" stroke="green" stroke-width="0.297205" d="M2319.51,-307.644C2156.75,-300.431 969.533,-247.821 769.559,-238.959"/>
<polygon fill="green" stroke="green" stroke-width="0.297205" points="769.682,-235.461 759.537,-238.515 769.372,-242.454 769.682,-235.461"/>
</g>
<!-- 15&#45;&gt;32 -->
<g id="edge71" class="edge"><title>15&#45;&gt;32</title>
<path fill="none" stroke="green" stroke-width="0.541981" d="M2321.66,-300.591C2262.92,-272.754 2056.25,-178.854 1874,-145.539 1573.55,-90.6171 572.095,-91.4099 388.904,-92.0295"/>
<polygon fill="green" stroke="green" stroke-width="0.541981" points="388.702,-88.5301 378.715,-92.0667 388.728,-95.53 388.702,-88.5301"/>
</g>
<!-- 16&#45;&gt;13 -->
<g id="edge66" class="edge"><title>16&#45;&gt;13</title>
<path fill="none" stroke="green" stroke-width="1.03821" d="M1237.73,-618.631C1227.83,-662.873 1208.74,-781.566 1273,-837.235 1370.23,-921.468 1790.25,-954.26 1903.68,-961.673"/>
<polygon fill="green" stroke="green" stroke-width="1.03821" points="1903.47,-965.167 1913.68,-962.312 1903.92,-958.181 1903.47,-965.167"/>
</g>
<!-- 16&#45;&gt;14 -->
<g id="edge67" class="edge"><title>16&#45;&gt;14</title>
<path fill="none" stroke="red" stroke-width="0.397678" d="M1238.11,-582.484C1226.08,-525.278 1194.85,-337.166 1274,-218.309 1307.32,-168.278 1331.16,-165.098 1388,-145.539 1488.38,-110.997 1821.31,-96.6874 1921.33,-93.103"/>
<polygon fill="red" stroke="red" stroke-width="0.397678" points="1921.71,-96.5922 1931.58,-92.7446 1921.46,-89.5965 1921.71,-96.5922"/>
</g>
<!-- 16&#45;&gt;17 -->
<g id="edge65" class="edge"><title>16&#45;&gt;17</title>
<path fill="none" stroke="red" stroke-width="0.570348" d="M1260,-596.08C1327.39,-584.261 1563.72,-545.535 1645.8,-532.841"/>
<polygon fill="red" stroke="red" stroke-width="0.570348" points="1646.54,-536.268 1655.89,-531.293 1645.48,-529.349 1646.54,-536.268"/>
</g>
<!-- 16&#45;&gt;18 -->
<g id="edge68" class="edge"><title>16&#45;&gt;18</title>
<path fill="none" stroke="green" stroke-width="1.69309" d="M1246.9,-618.766C1249.76,-629.183 1253.33,-642.76 1256,-654.926 1260.59,-675.854 1264.79,-699.737 1267.73,-717.661"/>
<polygon fill="green" stroke="green" stroke-width="1.69309" points="1264.3,-718.4 1269.35,-727.715 1271.21,-717.286 1264.3,-718.4"/>
</g>
<!-- 17&#45;&gt;16 -->
<g id="edge138" class="edge"><title>17&#45;&gt;16</title>
<path fill="none" stroke="green" stroke-width="1.44539" d="M1656.12,-532.212C1588.89,-544.005 1352.3,-582.776 1270.18,-595.475"/>
<polygon fill="green" stroke="green" stroke-width="1.44539" points="1269.44,-592.047 1260.09,-597.022 1270.5,-598.967 1269.44,-592.047"/>
</g>
<!-- 17&#45;&gt;17 -->
<g id="edge139" class="edge"><title>17&#45;&gt;17</title>
<path fill="none" stroke="red" stroke-width="0.725002" d="M1688.19,-539.528C1699.18,-543.925 1710.38,-540.006 1710.38,-527.772 1710.38,-519.361 1705.09,-514.88 1698.21,-514.329"/>
<polygon fill="red" stroke="red" stroke-width="0.725002" points="1697.47,-510.904 1688.19,-516.015 1698.63,-517.807 1697.47,-510.904"/>
</g>
<!-- 17&#45;&gt;18 -->
<g id="edge144" class="edge"><title>17&#45;&gt;18</title>
<path fill="none" stroke="green" stroke-width="1.52879" d="M1659.27,-539.124C1640.98,-549.155 1610.08,-565.289 1585,-582.156 1521.17,-625.084 1518.7,-655.17 1451,-691.696 1425.09,-705.673 1343.76,-728.371 1300.02,-739.1"/>
<polygon fill="green" stroke="green" stroke-width="1.52879" points="1298.93,-735.762 1290.02,-741.498 1300.56,-742.569 1298.93,-735.762"/>
</g>
<!-- 17&#45;&gt;23 -->
<g id="edge140" class="edge"><title>17&#45;&gt;23</title>
<path fill="none" stroke="red" stroke-width="0.375649" d="M1692.67,-525.826C1764.04,-522.04 2026.41,-506.546 2240,-473.387 2257.57,-470.659 2277.08,-466.444 2292.43,-462.848"/>
<polygon fill="red" stroke="red" stroke-width="0.375649" points="2293.41,-466.213 2302.32,-460.483 2291.78,-459.405 2293.41,-466.213"/>
</g>
<!-- 17&#45;&gt;24 -->
<g id="edge141" class="edge"><title>17&#45;&gt;24</title>
<path fill="none" stroke="green" stroke-width="0.653487" d="M1655.74,-525.057C1563.94,-515.824 1154.61,-471.962 1042.42,-459.382"/>
<polygon fill="green" stroke="green" stroke-width="0.653487" points="1042.56,-455.875 1032.23,-458.232 1041.77,-462.831 1042.56,-455.875"/>
</g>
<!-- 17&#45;&gt;25 -->
<g id="edge142" class="edge"><title>17&#45;&gt;25</title>
<path fill="none" stroke="red" stroke-width="0.401268" d="M1692.07,-523.406C1753.09,-512.043 1951.75,-475.044 2025.82,-461.249"/>
<polygon fill="red" stroke="red" stroke-width="0.401268" points="2026.63,-464.66 2035.82,-459.388 2025.35,-457.779 2026.63,-464.66"/>
</g>
<!-- 17&#45;&gt;26 -->
<g id="edge143" class="edge"><title>17&#45;&gt;26</title>
<path fill="none" stroke="green" stroke-width="0.651683" d="M1692.4,-525.799C1771.99,-521.445 2086.76,-502.672 2181,-473.387 2183.63,-472.571 2186.28,-471.53 2188.89,-470.365"/>
<polygon fill="green" stroke="green" stroke-width="0.651683" points="2190.59,-473.426 2197.92,-465.776 2187.42,-467.186 2190.59,-473.426"/>
</g>
<!-- 18&#45;&gt;10 -->
<g id="edge171" class="edge"><title>18&#45;&gt;10</title>
<path fill="none" stroke="green" stroke-width="1.52563" d="M1262.96,-730.028C1238.7,-688.173 1174,-566.227 1174,-456.002 1174,-456.002 1174,-456.002 1174,-381.233 1174,-255.761 1196.88,-107.149 1207.13,-46.8478"/>
<polygon fill="green" stroke="green" stroke-width="1.52563" points="1210.64,-47.0908 1208.89,-36.6415 1203.74,-45.9017 1210.64,-47.0908"/>
</g>
<!-- 18&#45;&gt;12 -->
<g id="edge73" class="edge"><title>18&#45;&gt;12</title>
<path fill="none" stroke="green" stroke-width="0.221103" d="M1254.02,-741.175C1208.14,-730.068 1087.63,-698.117 1033.18,-682.756"/>
<polygon fill="green" stroke="green" stroke-width="0.221103" points="1034.09,-679.376 1023.51,-680.003 1032.17,-686.108 1034.09,-679.376"/>
</g>
<!-- 18&#45;&gt;17 -->
<g id="edge76" class="edge"><title>18&#45;&gt;17</title>
<path fill="none" stroke="green" stroke-width="1.34556" d="M1289.31,-739.132C1325.59,-728.417 1407.07,-705.687 1433,-691.696 1500.7,-655.17 1503.17,-625.084 1567,-582.156 1592.77,-564.827 1624.69,-548.27 1647.16,-538.312"/>
<polygon fill="green" stroke="green" stroke-width="1.34556" points="1648.64,-541.486 1656.47,-534.344 1645.89,-535.047 1648.64,-541.486"/>
</g>
<!-- 18&#45;&gt;30 -->
<g id="edge74" class="edge"><title>18&#45;&gt;30</title>
<path fill="none" stroke="green" stroke-width="1.03884" d="M1281.81,-730.216C1283.18,-729.318 1284.6,-728.468 1286,-727.696 1325.92,-705.729 1344.54,-717.635 1382,-691.696 1505.81,-605.977 1485.48,-528.217 1605,-436.617 1632.63,-415.438 1670.01,-399.359 1695.45,-390.619"/>
<polygon fill="green" stroke="green" stroke-width="1.03884" points="1696.81,-393.858 1705.23,-387.431 1694.64,-387.202 1696.81,-393.858"/>
</g>
<!-- 18&#45;&gt;31 -->
<g id="edge75" class="edge"><title>18&#45;&gt;31</title>
<path fill="none" stroke="green" stroke-width="0.147608" d="M1253.38,-743.729C1196.13,-739.264 1023.84,-723.43 979,-691.696 825.703,-583.213 763.416,-345.084 746.262,-264.763"/>
<polygon fill="green" stroke="green" stroke-width="0.147608" points="749.679,-264.004 744.22,-254.924 742.825,-265.427 749.679,-264.004"/>
</g>
<!-- 18&#45;&gt;33 -->
<g id="edge77" class="edge"><title>18&#45;&gt;33</title>
<path fill="none" stroke="red" stroke-width="0.202203" d="M1271.54,-764.489C1272.04,-785.348 1276.38,-819.674 1298,-837.235 1325.22,-859.345 1856.68,-883.723 1987.23,-889.395"/>
<polygon fill="red" stroke="red" stroke-width="0.202203" points="1987.46,-892.908 1997.6,-889.843 1987.76,-885.914 1987.46,-892.908"/>
</g>
<!-- 19&#45;&gt;11 -->
<g id="edge78" class="edge"><title>19&#45;&gt;11</title>
<path fill="none" stroke="green" stroke-width="0.851078" d="M1873.58,-1103.37C1912.51,-1091.08 2006.22,-1061.47 2052.79,-1046.75"/>
<polygon fill="green" stroke="green" stroke-width="0.851078" points="2054.02,-1050.04 2062.5,-1043.69 2051.91,-1043.36 2054.02,-1050.04"/>
</g>
<!-- 19&#45;&gt;13 -->
<g id="edge80" class="edge"><title>19&#45;&gt;13</title>
<path fill="none" stroke="green" stroke-width="0.784921" d="M1870.44,-1097.73C1882.21,-1087.85 1898.42,-1072.42 1908,-1055.54 1919.01,-1036.14 1925.12,-1011.52 1928.42,-992.912"/>
<polygon fill="green" stroke="green" stroke-width="0.784921" points="1931.88,-993.429 1930.01,-983 1924.97,-992.318 1931.88,-993.429"/>
</g>
<!-- 19&#45;&gt;14 -->
<g id="edge81" class="edge"><title>19&#45;&gt;14</title>
<path fill="none" stroke="red" stroke-width="0.448088" d="M1837.36,-1108.45C1741.55,-1105.55 1295.57,-1086.81 950,-982.774 878.281,-961.182 861.647,-949.486 798,-910.004 618.644,-798.745 460.374,-703.603 543,-509.387 565.821,-455.744 867.514,-168.727 921,-145.539 1014.96,-104.802 1764.24,-94.2282 1921.22,-92.4511"/>
<polygon fill="red" stroke="red" stroke-width="0.448088" points="1921.52,-95.9481 1931.48,-92.338 1921.44,-88.9485 1921.52,-95.9481"/>
</g>
<!-- 19&#45;&gt;17 -->
<g id="edge79" class="edge"><title>19&#45;&gt;17</title>
<path fill="none" stroke="red" stroke-width="0.670388" d="M1856,-1091.25C1856,-1064.16 1856,-1010.74 1856,-965.389 1856,-965.389 1856,-965.389 1856,-672.311 1856,-594.568 1752.35,-552.417 1701.49,-536.414"/>
<polygon fill="red" stroke="red" stroke-width="0.670388" points="1702.37,-533.022 1691.78,-533.475 1700.34,-539.722 1702.37,-533.022"/>
</g>
<!-- 20&#45;&gt;11 -->
<g id="edge87" class="edge"><title>20&#45;&gt;11</title>
<path fill="none" stroke="green" stroke-width="0.541967" d="M1539.28,-1106.61C1620.9,-1096.28 1952.28,-1054.33 2051.68,-1041.74"/>
<polygon fill="green" stroke="green" stroke-width="0.541967" points="2052.38,-1045.18 2061.86,-1040.46 2051.5,-1038.24 2052.38,-1045.18"/>
</g>
<!-- 20&#45;&gt;13 -->
<g id="edge88" class="edge"><title>20&#45;&gt;13</title>
<path fill="none" stroke="green" stroke-width="0.538917" d="M1538.14,-1102.94C1602.11,-1080.6 1827.27,-1001.96 1905.21,-974.745"/>
<polygon fill="green" stroke="green" stroke-width="0.538917" points="1906.5,-978.001 1914.79,-971.399 1904.2,-971.392 1906.5,-978.001"/>
</g>
<!-- 20&#45;&gt;14 -->
<g id="edge89" class="edge"><title>20&#45;&gt;14</title>
<path fill="none" stroke="red" stroke-width="0.737657" d="M1502.67,-1107.07C1398.22,-1096.04 879.818,-1035.38 798,-910.004 736.021,-815.027 763.529,-764.959 791,-654.926 860.196,-377.762 911.724,-235.078 1183,-145.539 1324.04,-98.9873 1799.45,-93.0285 1921.33,-92.2661"/>
<polygon fill="red" stroke="red" stroke-width="0.737657" points="1921.41,-95.7659 1931.39,-92.2103 1921.37,-88.766 1921.41,-95.7659"/>
</g>
<!-- 20&#45;&gt;18 -->
<g id="edge90" class="edge"><title>20&#45;&gt;18</title>
<path fill="none" stroke="green" stroke-width="1.69355" d="M1505.94,-1098.77C1460.14,-1066.86 1322.65,-963.196 1273,-837.235 1265.13,-817.271 1265.4,-792.834 1267.35,-774.441"/>
<polygon fill="green" stroke="green" stroke-width="1.69355" points="1270.84,-774.754 1268.65,-764.389 1263.9,-773.86 1270.84,-774.754"/>
</g>
<!-- 21&#45;&gt;14 -->
<g id="edge94" class="edge"><title>21&#45;&gt;14</title>
<path fill="none" stroke="green" stroke-width="0.426961" d="M1352.59,-658.278C1344.88,-648.011 1335.2,-633.403 1330,-618.926 1307.95,-557.591 1316.01,-538.44 1312,-473.387 1304.65,-354.116 1293.85,-278.637 1397,-218.309 1576.34,-113.422 1835.67,-95.7329 1921.34,-92.7553"/>
<polygon fill="green" stroke="green" stroke-width="0.426961" points="1921.47,-96.253 1931.36,-92.4483 1921.26,-89.2563 1921.47,-96.253"/>
</g>
<!-- 21&#45;&gt;16 -->
<g id="edge91" class="edge"><title>21&#45;&gt;16</title>
<path fill="none" stroke="green" stroke-width="1.53673" d="M1348.55,-663.348C1327.85,-651.343 1290.91,-629.912 1266.42,-615.709"/>
<polygon fill="green" stroke="green" stroke-width="1.53673" points="1268.12,-612.645 1257.71,-610.655 1264.61,-618.7 1268.12,-612.645"/>
</g>
<!-- 21&#45;&gt;17 -->
<g id="edge93" class="edge"><title>21&#45;&gt;17</title>
<path fill="none" stroke="green" stroke-width="0.440605" d="M1378.98,-662.352C1406.2,-644.561 1465.95,-606.871 1520,-582.156 1563,-562.493 1615.49,-545.753 1646.75,-536.499"/>
<polygon fill="green" stroke="green" stroke-width="0.440605" points="1647.87,-539.817 1656.49,-533.654 1645.91,-533.097 1647.87,-539.817"/>
</g>
<!-- 21&#45;&gt;27 -->
<g id="edge95" class="edge"><title>21&#45;&gt;27</title>
<path fill="none" stroke="green" stroke-width="0.995321" d="M1356.85,-656.317C1345.84,-630.185 1326,-576.462 1326,-528.772 1326,-528.772 1326,-528.772 1326,-381.233 1326,-286.337 1380.87,-264.075 1464,-218.309 1525.23,-184.601 1740.2,-170.41 1818.34,-166.287"/>
<polygon fill="green" stroke="green" stroke-width="0.995321" points="1818.62,-169.777 1828.43,-165.771 1818.26,-162.786 1818.62,-169.777"/>
</g>
<!-- 21&#45;&gt;30 -->
<g id="edge92" class="edge"><title>21&#45;&gt;30</title>
<path fill="none" stroke="red" stroke-width="1.1725" d="M1371.25,-656.225C1391.42,-613.405 1452.46,-495.877 1540,-436.617 1588.02,-404.113 1656.03,-391.095 1694.17,-386.115"/>
<polygon fill="red" stroke="red" stroke-width="1.1725" points="1695.04,-389.537 1704.55,-384.865 1694.2,-382.587 1695.04,-389.537"/>
</g>
<!-- 22&#45;&gt;14 -->
<g id="edge154" class="edge"><title>22&#45;&gt;14</title>
<path fill="none" stroke="green" stroke-width="0.76603" d="M1112.46,-808.602C1071.99,-784.392 964.308,-719.137 933,-691.696 890.931,-654.822 852.531,-634.961 871,-582.156 956.514,-337.667 1023.69,-258.037 1257,-145.539 1317.6,-116.318 1798.56,-97.4943 1921.47,-93.1292"/>
<polygon fill="green" stroke="green" stroke-width="0.76603" points="1921.73,-96.6224 1931.6,-92.7736 1921.49,-89.6267 1921.73,-96.6224"/>
</g>
<!-- 22&#45;&gt;16 -->
<g id="edge150" class="edge"><title>22&#45;&gt;16</title>
<path fill="none" stroke="green" stroke-width="1.61937" d="M1132.07,-800.612C1139.9,-769.666 1159.07,-703.401 1190,-654.926 1198.32,-641.889 1210.21,-629.387 1220.52,-619.764"/>
<polygon fill="green" stroke="green" stroke-width="1.61937" points="1222.93,-622.302 1228.01,-613.005 1218.24,-617.105 1222.93,-622.302"/>
</g>
<!-- 22&#45;&gt;17 -->
<g id="edge152" class="edge"><title>22&#45;&gt;17</title>
<path fill="none" stroke="green" stroke-width="0.769849" d="M1145.59,-812.726C1176.7,-803.579 1243.42,-783.6 1299,-764.465 1385.68,-734.622 1413.24,-738.609 1492,-691.696 1534.44,-666.418 1539.15,-651.821 1576,-618.926 1602.98,-594.839 1633.58,-566.523 1653.31,-548.142"/>
<polygon fill="green" stroke="green" stroke-width="0.769849" points="1655.88,-550.529 1660.8,-541.147 1651.1,-545.412 1655.88,-550.529"/>
</g>
<!-- 22&#45;&gt;18 -->
<g id="edge155" class="edge"><title>22&#45;&gt;18</title>
<path fill="none" stroke="green" stroke-width="1.61196" d="M1143.86,-809.017C1148.98,-806.224 1154.7,-803.163 1160,-800.465 1189.26,-785.558 1223.38,-769.475 1246.21,-758.902"/>
<polygon fill="green" stroke="green" stroke-width="1.61196" points="1247.93,-761.961 1255.55,-754.592 1245,-755.605 1247.93,-761.961"/>
</g>
<!-- 22&#45;&gt;30 -->
<g id="edge151" class="edge"><title>22&#45;&gt;30</title>
<path fill="none" stroke="red" stroke-width="0.992272" d="M1129.12,-800.34C1132.88,-756.644 1148.87,-642.02 1215,-582.156 1362.99,-448.184 1611.63,-399.976 1694.88,-387.122"/>
<polygon fill="red" stroke="red" stroke-width="0.992272" points="1695.48,-390.571 1704.85,-385.631 1694.44,-383.648 1695.48,-390.571"/>
</g>
<!-- 22&#45;&gt;32 -->
<g id="edge153" class="edge"><title>22&#45;&gt;32</title>
<path fill="none" stroke="red" stroke-width="0.971592" d="M1112.75,-808.558C1107.57,-805.674 1101.65,-802.677 1096,-800.465 1035.37,-776.741 1015.56,-785.675 954,-764.465 819.532,-718.131 768.908,-720.153 669,-618.926 510.439,-458.272 401.901,-200.513 369.845,-118.265"/>
<polygon fill="red" stroke="red" stroke-width="0.971592" points="373.019,-116.767 366.154,-108.697 366.488,-119.286 373.019,-116.767"/>
</g>
<!-- 23&#45;&gt;11 -->
<g id="edge96" class="edge"><title>23&#45;&gt;11</title>
<path fill="none" stroke="green" stroke-width="0.70261" d="M2334.24,-467.38C2359.02,-487.865 2410.25,-533.383 2440,-582.156 2487.19,-659.515 2576.05,-914.918 2516,-982.774 2488.9,-1013.4 2201.1,-1030.18 2108.51,-1034.82"/>
<polygon fill="green" stroke="green" stroke-width="0.70261" points="2108.28,-1031.33 2098.46,-1035.31 2108.62,-1038.32 2108.28,-1031.33"/>
</g>
<!-- 23&#45;&gt;13 -->
<g id="edge98" class="edge"><title>23&#45;&gt;13</title>
<path fill="none" stroke="green" stroke-width="1.22668" d="M2325.78,-472.562C2334.5,-499.039 2350,-552.698 2350,-599.541 2350,-674.311 2350,-674.311 2350,-674.311 2350,-751.787 2343.41,-783.086 2288,-837.235 2284.88,-840.28 2041.35,-925.298 1958.92,-954.016"/>
<polygon fill="green" stroke="green" stroke-width="1.22668" points="1957.77,-950.711 1949.48,-957.306 1960.07,-957.321 1957.77,-950.711"/>
</g>
<!-- 23&#45;&gt;14 -->
<g id="edge100" class="edge"><title>23&#45;&gt;14</title>
<path fill="none" stroke="green" stroke-width="0.666085" d="M2338,-451.176C2390.55,-441.804 2540,-406.69 2540,-310.463 2540,-310.463 2540,-310.463 2540,-235.693 2540,-118.771 2097.01,-96.7028 1978.74,-92.8944"/>
<polygon fill="green" stroke="green" stroke-width="0.666085" points="1978.73,-89.3928 1968.63,-92.5888 1978.52,-96.3896 1978.73,-89.3928"/>
</g>
<!-- 23&#45;&gt;15 -->
<g id="edge101" class="edge"><title>23&#45;&gt;15</title>
<path fill="none" stroke="green" stroke-width="1.43615" d="M2322.17,-436.688C2325.25,-412.117 2330.92,-366.887 2334.58,-337.769"/>
<polygon fill="green" stroke="green" stroke-width="1.43615" points="2338.05,-338.196 2335.82,-327.839 2331.1,-337.325 2338.05,-338.196"/>
</g>
<!-- 23&#45;&gt;30 -->
<g id="edge97" class="edge"><title>23&#45;&gt;30</title>
<path fill="none" stroke="red" stroke-width="0.572174" d="M2304.93,-444.192C2299.76,-441.275 2293.81,-438.387 2288,-436.617 2185.92,-405.494 1852.02,-388.817 1751.74,-384.424"/>
<polygon fill="red" stroke="red" stroke-width="0.572174" points="1751.61,-380.915 1741.47,-383.981 1751.31,-387.909 1751.61,-380.915"/>
</g>
<!-- 23&#45;&gt;32 -->
<g id="edge99" class="edge"><title>23&#45;&gt;32</title>
<path fill="none" stroke="red" stroke-width="0.899528" d="M2304.73,-444.746C2299.55,-441.865 2293.64,-438.86 2288,-436.617 1818.86,-250.105 1688.27,-226.811 1190,-145.539 879.276,-94.8576 495.767,-91.782 388.849,-91.9844"/>
<polygon fill="red" stroke="red" stroke-width="0.899528" points="388.541,-88.4853 378.552,-92.0163 388.563,-95.4852 388.541,-88.4853"/>
</g>
<!-- 23&#45;&gt;33 -->
<g id="edge102" class="edge"><title>23&#45;&gt;33</title>
<path fill="none" stroke="green" stroke-width="0.324496" d="M2313.83,-472.428C2306.91,-490.606 2295.19,-520.699 2284,-546.156 2255.12,-611.866 2255.45,-633.099 2214,-691.696 2160.63,-767.14 2077.66,-839.979 2038.25,-872.665"/>
<polygon fill="green" stroke="green" stroke-width="0.324496" points="2035.59,-870.322 2030.08,-879.376 2040.03,-875.73 2035.59,-870.322"/>
</g>
<!-- 24&#45;&gt;11 -->
<g id="edge103" class="edge"><title>24&#45;&gt;11</title>
<path fill="none" stroke="red" stroke-width="0.604545" d="M998.076,-464.527C938.014,-497.724 724.824,-625.23 650,-800.465 608.574,-897.485 704.946,-941.429 802,-982.774 920.442,-1033.23 1872.96,-1036.08 2051.29,-1036.17"/>
<polygon fill="red" stroke="red" stroke-width="0.604545" points="2051.46,-1039.67 2061.46,-1036.17 2051.46,-1032.67 2051.46,-1039.67"/>
</g>
<!-- 24&#45;&gt;12 -->
<g id="edge104" class="edge"><title>24&#45;&gt;12</title>
<path fill="none" stroke="red" stroke-width="0.997679" d="M1005.55,-471.841C1000.51,-482.201 994.609,-496.21 992,-509.387 982.545,-557.144 985.774,-570.642 992,-618.926 993.15,-627.844 995.338,-637.397 997.649,-645.922"/>
<polygon fill="red" stroke="red" stroke-width="0.997679" points="994.334,-647.059 1000.47,-655.698 1001.06,-645.12 994.334,-647.059"/>
</g>
<!-- 24&#45;&gt;13 -->
<g id="edge108" class="edge"><title>24&#45;&gt;13</title>
<path fill="none" stroke="green" stroke-width="0.748935" d="M1003.28,-470.085C996.107,-480.375 987.232,-494.992 983,-509.387 932.504,-681.146 868.282,-823.457 1025,-910.004 1103.39,-953.295 1756.38,-961.79 1902.9,-963.156"/>
<polygon fill="green" stroke="green" stroke-width="0.748935" points="1903.27,-966.66 1913.3,-963.249 1903.33,-959.66 1903.27,-966.66"/>
</g>
<!-- 24&#45;&gt;17 -->
<g id="edge107" class="edge"><title>24&#45;&gt;17</title>
<path fill="none" stroke="green" stroke-width="0.678227" d="M1032.47,-457.738C1124.67,-467.016 1533.36,-510.809 1645.53,-523.387"/>
<polygon fill="green" stroke="green" stroke-width="0.678227" points="1645.4,-526.894 1655.73,-524.537 1646.18,-519.938 1645.4,-526.894"/>
</g>
<!-- 24&#45;&gt;30 -->
<g id="edge105" class="edge"><title>24&#45;&gt;30</title>
<path fill="none" stroke="green" stroke-width="0.320133" d="M1032.24,-452.182C1128.4,-442.583 1576.56,-397.85 1694.5,-386.078"/>
<polygon fill="green" stroke="green" stroke-width="0.320133" points="1694.95,-389.549 1704.56,-385.073 1694.26,-382.584 1694.95,-389.549"/>
</g>
<!-- 24&#45;&gt;31 -->
<g id="edge106" class="edge"><title>24&#45;&gt;31</title>
<path fill="none" stroke="red" stroke-width="0.98947" d="M1000.09,-442.978C955.737,-407.838 817.443,-298.262 763.174,-255.263"/>
<polygon fill="red" stroke="red" stroke-width="0.98947" points="765.224,-252.422 755.213,-248.955 760.877,-257.908 765.224,-252.422"/>
</g>
<!-- 24&#45;&gt;32 -->
<g id="edge109" class="edge"><title>24&#45;&gt;32</title>
<path fill="none" stroke="green" stroke-width="0.23492" d="M1007.33,-437.664C984.119,-383.357 901.013,-208.75 768,-145.539 700.384,-113.406 470.007,-98.1053 388.699,-93.6136"/>
<polygon fill="green" stroke="green" stroke-width="0.23492" points="388.851,-90.1168 378.677,-93.0734 388.474,-97.1066 388.851,-90.1168"/>
</g>
<!-- 25&#45;&gt;13 -->
<g id="edge112" class="edge"><title>25&#45;&gt;13</title>
<path fill="none" stroke="red" stroke-width="1.08553" d="M2059.38,-473.057C2078.39,-536.87 2136.45,-765.282 2043,-910.004 2033.3,-925.029 1988.88,-943.212 1959.26,-954.011"/>
<polygon fill="red" stroke="red" stroke-width="1.08553" points="1957.72,-950.845 1949.48,-957.505 1960.08,-957.436 1957.72,-950.845"/>
</g>
<!-- 25&#45;&gt;14 -->
<g id="edge114" class="edge"><title>25&#45;&gt;14</title>
<path fill="none" stroke="green" stroke-width="0.476418" d="M2054,-436.324C2054,-409.233 2054,-355.817 2054,-310.463 2054,-310.463 2054,-310.463 2054,-235.693 2054,-207.182 1999.51,-144.743 1969.42,-112.429"/>
<polygon fill="green" stroke="green" stroke-width="0.476418" points="1971.74,-109.789 1962.34,-104.901 1966.64,-114.584 1971.74,-109.789"/>
</g>
<!-- 25&#45;&gt;30 -->
<g id="edge110" class="edge"><title>25&#45;&gt;30</title>
<path fill="none" stroke="red" stroke-width="0.228748" d="M2038.89,-444.327C2033.71,-441.419 2027.77,-438.503 2022,-436.617 1908.18,-399.424 1868.82,-437.811 1755,-400.617 1752.39,-399.763 1749.74,-398.697 1747.14,-397.516"/>
<polygon fill="red" stroke="red" stroke-width="0.228748" points="1748.61,-394.339 1738.11,-392.907 1745.43,-400.573 1748.61,-394.339"/>
</g>
<!-- 25&#45;&gt;32 -->
<g id="edge113" class="edge"><title>25&#45;&gt;32</title>
<path fill="none" stroke="green" stroke-width="0.406673" d="M2038.36,-444.686C2033.25,-441.867 2027.48,-438.913 2022,-436.617 1766.6,-329.637 1689.22,-341.041 1426,-255.078 1285.5,-209.194 1256.76,-175.375 1112,-145.539 969.666,-116.203 508.41,-97.5917 388.632,-93.1732"/>
<polygon fill="green" stroke="green" stroke-width="0.406673" points="388.553,-89.6681 378.432,-92.801 388.298,-96.6635 388.553,-89.6681"/>
</g>
<!-- 25&#45;&gt;34 -->
<g id="edge111" class="edge"><title>25&#45;&gt;34</title>
<path fill="none" stroke="red" stroke-width="0.876876" d="M2046.71,-471.889C2022.97,-521.958 1942.98,-678.242 1832,-764.465 1799.35,-789.829 1753.15,-804.535 1723.89,-811.873"/>
<polygon fill="red" stroke="red" stroke-width="0.876876" points="1722.84,-808.524 1713.93,-814.25 1724.47,-815.333 1722.84,-808.524"/>
</g>
<!-- 26&#45;&gt;14 -->
<g id="edge127" class="edge"><title>26&#45;&gt;14</title>
<path fill="none" stroke="red" stroke-width="0.868292" d="M2206.23,-437.602C2185.41,-388.627 2118.16,-240.934 2027,-145.539 2007.07,-124.685 1996.52,-126.243 1973,-109.539 1972.91,-109.478 1972.83,-109.416 1972.74,-109.354"/>
<polygon fill="red" stroke="red" stroke-width="0.868292" points="1974.64,-106.407 1964.5,-103.322 1970.5,-112.055 1974.64,-106.407"/>
</g>
<!-- 26&#45;&gt;30 -->
<g id="edge125" class="edge"><title>26&#45;&gt;30</title>
<path fill="none" stroke="red" stroke-width="1.12436" d="M2194.69,-451.357C2120.39,-440.627 1841.18,-400.3 1751.16,-387.3"/>
<polygon fill="red" stroke="red" stroke-width="1.12436" points="1751.54,-383.819 1741.15,-385.853 1750.54,-390.747 1751.54,-383.819"/>
</g>
<!-- 26&#45;&gt;34 -->
<g id="edge126" class="edge"><title>26&#45;&gt;34</title>
<path fill="none" stroke="red" stroke-width="0.216416" d="M2217.05,-473.05C2226.09,-515.678 2243.03,-628.03 2188,-691.696 2125.89,-763.563 1819.85,-803.816 1724.45,-814.766"/>
<polygon fill="red" stroke="red" stroke-width="0.216416" points="1723.93,-811.302 1714.39,-815.902 1724.72,-818.258 1723.93,-811.302"/>
</g>
<!-- 27&#45;&gt;11 -->
<g id="edge119" class="edge"><title>27&#45;&gt;11</title>
<path fill="none" stroke="red" stroke-width="0.878627" d="M1865.35,-166.06C1912.89,-169.455 2043.39,-181.675 2145,-218.309 2176.22,-229.566 2178.73,-243.962 2210,-255.078 2300.05,-287.086 2335.82,-249.765 2422,-291.078 2618.42,-385.239 2730,-454.487 2730,-672.311 2730,-747.08 2730,-747.08 2730,-747.08 2730,-810.013 2626.8,-950.12 2573,-982.774 2494.07,-1030.68 2201.27,-1035.79 2108.44,-1036.18"/>
<polygon fill="red" stroke="red" stroke-width="0.878627" points="2108.36,-1032.68 2098.37,-1036.21 2108.38,-1039.68 2108.36,-1032.68"/>
</g>
<!-- 27&#45;&gt;12 -->
<g id="edge120" class="edge"><title>27&#45;&gt;12</title>
<path fill="none" stroke="red" stroke-width="0.997094" d="M1828.49,-165.607C1753.96,-168.588 1475.98,-181.972 1397,-218.309 1266.9,-278.168 1248.74,-324.212 1160,-436.617 1102.47,-509.492 1113.53,-544.52 1058,-618.926 1048.75,-631.32 1036.8,-643.778 1026.69,-653.539"/>
<polygon fill="red" stroke="red" stroke-width="0.997094" points="1024.26,-651.021 1019.39,-660.432 1029.07,-656.11 1024.26,-651.021"/>
</g>
<!-- 27&#45;&gt;14 -->
<g id="edge123" class="edge"><title>27&#45;&gt;14</title>
<path fill="none" stroke="green" stroke-width="1.56727" d="M1861.76,-152.784C1878.74,-141.118 1906.84,-121.812 1926.76,-108.122"/>
<polygon fill="green" stroke="green" stroke-width="1.56727" points="1929.01,-110.823 1935.27,-102.275 1925.05,-105.053 1929.01,-110.823"/>
</g>
<!-- 27&#45;&gt;15 -->
<g id="edge124" class="edge"><title>27&#45;&gt;15</title>
<path fill="none" stroke="green" stroke-width="0.810332" d="M1864.38,-170.708C1908.97,-185.471 2031.11,-225.474 2134,-255.078 2196.68,-273.113 2270.92,-291.902 2310.28,-301.661"/>
<polygon fill="green" stroke="green" stroke-width="0.810332" points="2309.64,-305.108 2320.18,-304.109 2311.32,-298.312 2309.64,-305.108"/>
</g>
<!-- 27&#45;&gt;30 -->
<g id="edge121" class="edge"><title>27&#45;&gt;30</title>
<path fill="none" stroke="green" stroke-width="0.986732" d="M1838.29,-180.117C1817.04,-217.179 1762.43,-312.457 1736.74,-357.266"/>
<polygon fill="green" stroke="green" stroke-width="0.986732" points="1733.66,-355.606 1731.72,-366.022 1739.73,-359.087 1733.66,-355.606"/>
</g>
<!-- 27&#45;&gt;34 -->
<g id="edge122" class="edge"><title>27&#45;&gt;34</title>
<path fill="none" stroke="red" stroke-width="0.213232" d="M1831.18,-173.92C1780.9,-203.546 1624.84,-303.798 1569,-436.617 1512.82,-570.239 1631.5,-738.098 1678.2,-796.591"/>
<polygon fill="red" stroke="red" stroke-width="0.213232" points="1675.52,-798.846 1684.54,-804.411 1680.96,-794.438 1675.52,-798.846"/>
</g>
<!-- 28&#45;&gt;11 -->
<g id="edge128" class="edge"><title>28&#45;&gt;11</title>
<path fill="none" stroke="green" stroke-width="0.588805" d="M2142.76,-1096.6C2131.1,-1085.74 2113.93,-1069.75 2100.5,-1057.24"/>
<polygon fill="green" stroke="green" stroke-width="0.588805" points="2102.79,-1054.6 2093.09,-1050.34 2098.02,-1059.72 2102.79,-1054.6"/>
</g>
<!-- 28&#45;&gt;13 -->
<g id="edge130" class="edge"><title>28&#45;&gt;13</title>
<path fill="none" stroke="green" stroke-width="0.539086" d="M2154.75,-1091.41C2152.36,-1071.09 2145.38,-1037.94 2125,-1018.77 2079.34,-975.83 2002.26,-966.896 1960.67,-965.367"/>
<polygon fill="green" stroke="green" stroke-width="0.539086" points="1960.74,-961.868 1950.66,-965.119 1960.57,-968.866 1960.74,-961.868"/>
</g>
<!-- 28&#45;&gt;14 -->
<g id="edge131" class="edge"><title>28&#45;&gt;14</title>
<path fill="none" stroke="red" stroke-width="0.439005" d="M2174.28,-1106.84C2248.57,-1097.5 2531.92,-1053.54 2703,-910.004 2784.74,-841.425 2882,-719.541 2882,-528.772 2882,-528.772 2882,-528.772 2882,-235.693 2882,-122.996 2754.98,-170.142 2645,-145.539 2514.72,-116.395 2092.77,-97.8333 1978.67,-93.2608"/>
<polygon fill="red" stroke="red" stroke-width="0.439005" points="1978.74,-89.7609 1968.61,-92.8621 1978.46,-96.7554 1978.74,-89.7609"/>
</g>
<!-- 28&#45;&gt;17 -->
<g id="edge129" class="edge"><title>28&#45;&gt;17</title>
<path fill="none" stroke="red" stroke-width="0.690082" d="M2159.38,-1091.64C2166.42,-1051.66 2179.7,-950.331 2151,-873.235 2092.4,-715.833 2053.82,-668.909 1910,-582.156 1843.12,-541.816 1813.94,-564.401 1738,-546.156 1725.91,-543.253 1712.64,-539.707 1701.33,-536.576"/>
<polygon fill="red" stroke="red" stroke-width="0.690082" points="1702.16,-533.174 1691.59,-533.848 1700.27,-539.915 1702.16,-533.174"/>
</g>
<!-- 29&#45;&gt;10 -->
<g id="edge168" class="edge"><title>29&#45;&gt;10</title>
<path fill="none" stroke="green" stroke-width="0.141576" d="M758.047,-156.706C800.161,-141.446 912.617,-101.316 1008,-72.7696 1070.49,-54.0687 1144.81,-35.5406 1184.22,-26.0026"/>
<polygon fill="green" stroke="green" stroke-width="0.141576" points="1185.24,-29.3565 1194.15,-23.6127 1183.61,-22.551 1185.24,-29.3565"/>
</g>
<!-- 29&#45;&gt;14 -->
<g id="edge136" class="edge"><title>29&#45;&gt;14</title>
<path fill="none" stroke="green" stroke-width="0.770065" d="M758.773,-158.287C775.287,-154.186 800.628,-148.421 823,-145.539 1257.17,-89.6041 1792.19,-90.6454 1921.09,-91.8122"/>
<polygon fill="green" stroke="green" stroke-width="0.770065" points="1921.28,-95.3141 1931.31,-91.9131 1921.35,-88.3145 1921.28,-95.3141"/>
</g>
<!-- 29&#45;&gt;16 -->
<g id="edge132" class="edge"><title>29&#45;&gt;16</title>
<path fill="none" stroke="green" stroke-width="1.67919" d="M749.876,-180.358C778.543,-229.084 873.415,-381.817 987,-473.387 1060.41,-532.572 1166.15,-573.644 1215.17,-590.702"/>
<polygon fill="green" stroke="green" stroke-width="1.67919" points="1214.15,-594.05 1224.74,-593.976 1216.41,-587.427 1214.15,-594.05"/>
</g>
<!-- 29&#45;&gt;17 -->
<g id="edge134" class="edge"><title>29&#45;&gt;17</title>
<path fill="none" stroke="green" stroke-width="0.817894" d="M754.695,-176.223C757.663,-178.398 760.857,-180.545 764,-182.309 1071.47,-354.885 1169.4,-356.362 1502,-473.387 1552.52,-491.161 1612.43,-509.049 1646.55,-518.941"/>
<polygon fill="green" stroke="green" stroke-width="0.817894" points="1645.7,-522.337 1656.28,-521.746 1647.64,-515.612 1645.7,-522.337"/>
</g>
<!-- 29&#45;&gt;18 -->
<g id="edge137" class="edge"><title>29&#45;&gt;18</title>
<path fill="none" stroke="green" stroke-width="1.68414" d="M731.037,-179.675C697.232,-231.684 592.149,-410.672 650,-546.156 668.364,-589.165 686.153,-594.448 726,-618.926 900.715,-726.254 1157.83,-742.366 1243.24,-744.709"/>
<polygon fill="green" stroke="green" stroke-width="1.68414" points="1243.39,-748.213 1253.46,-744.944 1243.55,-741.215 1243.39,-748.213"/>
</g>
<!-- 29&#45;&gt;30 -->
<g id="edge133" class="edge"><title>29&#45;&gt;30</title>
<path fill="none" stroke="red" stroke-width="0.922306" d="M758.829,-168.851C877.22,-194.93 1549.59,-343.035 1695.19,-375.107"/>
<polygon fill="red" stroke="red" stroke-width="0.922306" points="1694.6,-378.56 1705.12,-377.293 1696.1,-371.724 1694.6,-378.56"/>
</g>
<!-- 29&#45;&gt;32 -->
<g id="edge135" class="edge"><title>29&#45;&gt;32</title>
<path fill="none" stroke="red" stroke-width="0.757039" d="M722.88,-159.558C661.707,-148.195 462.514,-111.196 388.25,-97.4017"/>
<polygon fill="red" stroke="red" stroke-width="0.757039" points="388.702,-93.9259 378.231,-95.5407 387.424,-100.808 388.702,-93.9259"/>
</g>
<!-- 30&#45;&gt;11 -->
<g id="edge145" class="edge"><title>30&#45;&gt;11</title>
<path fill="none" stroke="red" stroke-width="0.976766" d="M1741.53,-384.027C1829.15,-387.929 2199.28,-406.124 2240,-436.617 2362.57,-528.407 2392.61,-633.559 2359,-764.465 2324.69,-898.111 2167.77,-991.34 2105.54,-1023.66"/>
<polygon fill="red" stroke="red" stroke-width="0.976766" points="2103.71,-1020.66 2096.4,-1028.32 2106.89,-1026.89 2103.71,-1020.66"/>
</g>
<!-- 30&#45;&gt;12 -->
<g id="edge146" class="edge"><title>30&#45;&gt;12</title>
<path fill="none" stroke="green" stroke-width="0.804016" d="M1704.36,-382.872C1648.48,-382.414 1478.25,-385.597 1350,-436.617 1245.84,-478.053 1234.29,-515.717 1144,-582.156 1122.36,-598.084 1118.26,-603.874 1096,-618.926 1074.6,-633.397 1049.2,-648.264 1030.85,-658.622"/>
<polygon fill="green" stroke="green" stroke-width="0.804016" points="1028.97,-655.663 1021.96,-663.602 1032.39,-661.771 1028.97,-655.663"/>
</g>
<!-- 30&#45;&gt;13 -->
<g id="edge147" class="edge"><title>30&#45;&gt;13</title>
<path fill="none" stroke="red" stroke-width="0.889828" d="M1739.21,-391.756C1794.16,-421.954 1970,-529.724 1970,-672.311 1970,-819.85 1970,-819.85 1970,-819.85 1970,-862.324 1954.26,-909.584 1943.04,-937.875"/>
<polygon fill="red" stroke="red" stroke-width="0.889828" points="1939.69,-936.814 1939.15,-947.395 1946.17,-939.463 1939.69,-936.814"/>
</g>
<!-- 30&#45;&gt;15 -->
<g id="edge148" class="edge"><title>30&#45;&gt;15</title>
<path fill="none" stroke="green" stroke-width="0.786171" d="M1741.41,-379.115C1828.94,-369.042 2203.24,-325.97 2309.67,-313.723"/>
<polygon fill="green" stroke="green" stroke-width="0.786171" points="2310.13,-317.193 2319.67,-312.573 2309.33,-310.239 2310.13,-317.193"/>
</g>
<!-- 30&#45;&gt;18 -->
<g id="edge149" class="edge"><title>30&#45;&gt;18</title>
<path fill="none" stroke="green" stroke-width="1.68421" d="M1706.99,-391.306C1686.1,-400.186 1649.93,-415.981 1623,-436.617 1503.48,-528.217 1523.81,-605.977 1400,-691.696 1362.54,-717.635 1343.92,-705.729 1304,-727.696 1301.74,-728.941 1299.45,-730.391 1297.17,-731.913"/>
<polygon fill="green" stroke="green" stroke-width="1.68421" points="1294.74,-729.33 1288.45,-737.853 1298.69,-735.114 1294.74,-729.33"/>
</g>
<!-- 31&#45;&gt;11 -->
<g id="edge82" class="edge"><title>31&#45;&gt;11</title>
<path fill="none" stroke="green" stroke-width="0.484301" d="M729.79,-251.541C705.584,-282.441 649.001,-360.326 629,-436.617 608.444,-515.024 608.763,-541.898 634,-618.926 655.139,-683.445 772.93,-871.542 849,-910.004 1069.45,-1021.47 1887.19,-1034.47 2051.24,-1035.97"/>
<polygon fill="green" stroke="green" stroke-width="0.484301" points="2051.46,-1039.47 2061.49,-1036.05 2051.52,-1032.47 2051.46,-1039.47"/>
</g>
<!-- 31&#45;&gt;12 -->
<g id="edge83" class="edge"><title>31&#45;&gt;12</title>
<path fill="none" stroke="green" stroke-width="1.10859" d="M750.338,-253.009C789.807,-317.74 943.122,-569.187 991.375,-648.325"/>
<polygon fill="green" stroke="green" stroke-width="1.10859" points="988.53,-650.381 996.724,-657.097 994.506,-646.737 988.53,-650.381"/>
</g>
<!-- 31&#45;&gt;13 -->
<g id="edge85" class="edge"><title>31&#45;&gt;13</title>
<path fill="none" stroke="green" stroke-width="0.426604" d="M722.478,-237.924C685.602,-239.348 602.237,-247.525 552,-291.078 518.879,-319.793 512,-337.397 512,-381.233 512,-456.002 512,-456.002 512,-456.002 512,-488.858 861.406,-895.732 891,-910.004 984.32,-955.01 1743.7,-962.215 1902.83,-963.235"/>
<polygon fill="green" stroke="green" stroke-width="0.426604" points="1903.21,-966.737 1913.23,-963.298 1903.25,-959.737 1903.21,-966.737"/>
</g>
<!-- 31&#45;&gt;27 -->
<g id="edge86" class="edge"><title>31&#45;&gt;27</title>
<path fill="none" stroke="red" stroke-width="0.233791" d="M759.274,-234.524C888.048,-226.284 1658.46,-176.988 1818.07,-166.775"/>
<polygon fill="red" stroke="red" stroke-width="0.233791" points="1818.73,-170.24 1828.49,-166.109 1818.28,-163.254 1818.73,-170.24"/>
</g>
<!-- 31&#45;&gt;29 -->
<g id="edge84" class="edge"><title>31&#45;&gt;29</title>
<path fill="none" stroke="green" stroke-width="0.309946" d="M741,-218.2C741,-210.518 741,-201.308 741,-192.724"/>
<polygon fill="green" stroke="green" stroke-width="0.309946" points="744.5,-192.708 741,-182.708 737.5,-192.708 744.5,-192.708"/>
</g>
<!-- 32&#45;&gt;12 -->
<g id="edge115" class="edge"><title>32&#45;&gt;12</title>
<path fill="none" stroke="red" stroke-width="0.875816" d="M372.428,-104.853C382.982,-115.651 398.517,-131.58 412,-145.539 552.169,-290.66 573.3,-341.516 726,-473.387 814.611,-549.911 932.008,-626.068 981.908,-657.406"/>
<polygon fill="red" stroke="red" stroke-width="0.875816" points="980.355,-660.562 990.69,-662.894 984.065,-654.626 980.355,-660.562"/>
</g>
<!-- 32&#45;&gt;13 -->
<g id="edge117" class="edge"><title>32&#45;&gt;13</title>
<path fill="none" stroke="green" stroke-width="0.663713" d="M341.456,-93.3671C280.818,-98.2323 94,-122.059 94,-235.693 94,-310.463 94,-310.463 94,-310.463 94,-451.142 81.0771,-506.02 165,-618.926 364.288,-887.038 529.636,-848.545 858,-910.004 1067.63,-949.24 1754.56,-960.842 1903.44,-962.99"/>
<polygon fill="green" stroke="green" stroke-width="0.663713" points="1903.54,-966.492 1913.59,-963.134 1903.64,-959.493 1903.54,-966.492"/>
</g>
<!-- 32&#45;&gt;17 -->
<g id="edge116" class="edge"><title>32&#45;&gt;17</title>
<path fill="none" stroke="green" stroke-width="0.478978" d="M378.417,-92.3834C440.517,-93.5641 647.485,-100.831 811,-145.539 1160.35,-241.06 1550.04,-455.987 1649.76,-512.786"/>
<polygon fill="green" stroke="green" stroke-width="0.478978" points="1648.07,-515.854 1658.49,-517.78 1651.55,-509.778 1648.07,-515.854"/>
</g>
<!-- 32&#45;&gt;32 -->
<g id="edge118" class="edge"><title>32&#45;&gt;32</title>
<path fill="none" stroke="red" stroke-width="0.592328" d="M374.192,-102.911C385.179,-107.308 396.385,-103.389 396.385,-91.1543 396.385,-82.7432 391.088,-78.2625 384.208,-77.7121"/>
<polygon fill="red" stroke="red" stroke-width="0.592328" points="383.472,-74.2866 374.192,-79.3979 384.634,-81.1895 383.472,-74.2866"/>
</g>
<!-- 33&#45;&gt;13 -->
<g id="edge159" class="edge"><title>33&#45;&gt;13</title>
<path fill="none" stroke="red" stroke-width="0.41725" d="M2005.01,-906.501C1992.51,-918.386 1972.29,-935.486 1956.17,-947.831"/>
<polygon fill="red" stroke="red" stroke-width="0.41725" points="1953.64,-945.353 1947.71,-954.137 1957.82,-950.965 1953.64,-945.353"/>
</g>
<!-- 33&#45;&gt;14 -->
<g id="edge161" class="edge"><title>33&#45;&gt;14</title>
<path fill="none" stroke="green" stroke-width="1.21005" d="M2034.41,-890.935C2139.01,-891.694 2654,-881.229 2654,-601.541 2654,-601.541 2654,-601.541 2654,-526.772 2654,-429.162 2692,-408.072 2692,-310.463 2692,-310.463 2692,-310.463 2692,-235.693 2692,-129.613 2573.92,-171.241 2471,-145.539 2287.75,-99.7768 2058.85,-93.1308 1979.04,-92.2516"/>
<polygon fill="green" stroke="green" stroke-width="1.21005" points="1978.82,-88.7496 1968.79,-92.1623 1978.76,-95.7494 1978.82,-88.7496"/>
</g>
<!-- 33&#45;&gt;15 -->
<g id="edge162" class="edge"><title>33&#45;&gt;15</title>
<path fill="none" stroke="red" stroke-width="0.631438" d="M2032.66,-883.261C2052.71,-874.009 2086.92,-856.93 2113,-837.235 2181.5,-785.491 2194.49,-764.486 2240,-691.696 2265.43,-651.019 2344.42,-484.685 2347,-473.387 2357.64,-426.735 2350.32,-370.72 2344.11,-338.005"/>
<polygon fill="red" stroke="red" stroke-width="0.631438" points="2347.47,-336.968 2342.07,-327.851 2340.61,-338.344 2347.47,-336.968"/>
</g>
<!-- 33&#45;&gt;30 -->
<g id="edge157" class="edge"><title>33&#45;&gt;30</title>
<path fill="none" stroke="green" stroke-width="0.350943" d="M2014.38,-872.959C2012.04,-845.891 2008,-792.505 2008,-747.08 2008,-747.08 2008,-747.08 2008,-526.772 2008,-466.932 1960.3,-465.689 1908,-436.617 1856.81,-408.164 1789.03,-393.652 1751.35,-387.326"/>
<polygon fill="green" stroke="green" stroke-width="0.350943" points="1751.55,-383.812 1741.12,-385.686 1750.44,-390.724 1751.55,-383.812"/>
</g>
<!-- 33&#45;&gt;32 -->
<g id="edge160" class="edge"><title>33&#45;&gt;32</title>
<path fill="none" stroke="green" stroke-width="1.04429" d="M1997.38,-889.768C1875.41,-884.155 1192.47,-852.245 1101,-837.235 1085.88,-834.754 849.197,-770.225 835,-764.465 772.924,-739.279 756.191,-732.42 703,-691.696 560.226,-582.385 505.566,-559.834 422,-400.617 372.379,-306.076 362.388,-176.072 360.437,-119.879"/>
<polygon fill="green" stroke="green" stroke-width="1.04429" points="363.929,-119.553 360.145,-109.657 356.932,-119.753 363.929,-119.553"/>
</g>
<!-- 33&#45;&gt;34 -->
<g id="edge158" class="edge"><title>33&#45;&gt;34</title>
<path fill="none" stroke="red" stroke-width="0.435561" d="M1997.88,-886.612C1944.53,-874.812 1787.75,-840.141 1723.72,-825.98"/>
<polygon fill="red" stroke="red" stroke-width="0.435561" points="1724.44,-822.556 1713.92,-823.814 1722.93,-829.39 1724.44,-822.556"/>
</g>
<!-- 34&#45;&gt;18 -->
<g id="edge156" class="edge"><title>34&#45;&gt;18</title>
<path fill="none" stroke="green" stroke-width="1.65363" d="M1678.05,-814.854C1611.83,-803.801 1380.87,-765.252 1300.13,-751.775"/>
<polygon fill="green" stroke="green" stroke-width="1.65363" points="1300.63,-748.31 1290.19,-750.116 1299.48,-755.215 1300.63,-748.31"/>
</g>
<!-- 35&#45;&gt;11 -->
<g id="edge164" class="edge"><title>35&#45;&gt;11</title>
<path fill="none" stroke="green" stroke-width="1.53604" d="M2004.99,-1166.34C2019.58,-1141.41 2048.52,-1091.95 2065.88,-1062.29"/>
<polygon fill="green" stroke="green" stroke-width="1.53604" points="2069.05,-1063.81 2071.08,-1053.41 2063,-1060.27 2069.05,-1063.81"/>
</g>
<!-- 35&#45;&gt;28 -->
<g id="edge163" class="edge"><title>35&#45;&gt;28</title>
<path fill="none" stroke="green" stroke-width="0.694483" d="M2012.52,-1174.39C2040.31,-1162.1 2096.6,-1137.2 2129.82,-1122.51"/>
<polygon fill="green" stroke="green" stroke-width="0.694483" points="2131.6,-1125.55 2139.33,-1118.3 2128.77,-1119.15 2131.6,-1125.55"/>
</g>
<!-- 35&#45;&gt;29 -->
<g id="edge165" class="edge"><title>35&#45;&gt;29</title>
<path fill="none" stroke="green" stroke-width="0.538635" d="M1977.32,-1180.93C1915.2,-1178.37 1709.84,-1170.03 1540,-1164.31 1403.13,-1159.7 439.741,-1165.71 308,-1128.31 230.965,-1106.44 152,-1118.24 152,-1038.16 152,-1038.16 152,-1038.16 152,-745.08 152,-640.258 246,-633.594 246,-528.772 246,-528.772 246,-528.772 246,-381.233 246,-176.298 606.658,-163.617 712.272,-164.297"/>
<polygon fill="green" stroke="green" stroke-width="0.538635" points="712.46,-167.8 722.499,-164.412 712.539,-160.8 712.46,-167.8"/>
</g>
<!-- 35&#45;&gt;35 -->
<g id="edge166" class="edge"><title>35&#45;&gt;35</title>
<path fill="none" stroke="green" stroke-width="0.399332" d="M2010.19,-1194.45C2021.18,-1198.85 2032.38,-1194.93 2032.38,-1182.7 2032.38,-1174.29 2027.09,-1169.81 2020.21,-1169.26"/>
<polygon fill="green" stroke="green" stroke-width="0.399332" points="2019.47,-1165.83 2010.19,-1170.94 2020.63,-1172.73 2019.47,-1165.83"/>
</g>
<!-- 36 -->
<g id="node37" class="node"><title>36</title>
<ellipse fill="white" stroke="black" cx="2158" cy="-1255.47" rx="18.2703" ry="18.2703"/>
<text text-anchor="middle" x="2158" y="-1253.27" font-family="Times New Roman,serif" font-size="9.00">36</text>
</g>
<!-- 37 -->
<g id="node38" class="node"><title>37</title>
<ellipse fill="white" stroke="black" cx="2213" cy="-1255.47" rx="18.2703" ry="18.2703"/>
<text text-anchor="middle" x="2213" y="-1253.27" font-family="Times New Roman,serif" font-size="9.00">37</text>
</g>
<!-- 38 -->
<g id="node39" class="node"><title>38</title>
<ellipse fill="white" stroke="black" cx="2268" cy="-1255.47" rx="18.2703" ry="18.2703"/>
<text text-anchor="middle" x="2268" y="-1253.27" font-family="Times New Roman,serif" font-size="9.00">38</text>
</g>
<!-- 39 -->
<g id="node40" class="node"><title>39</title>
<ellipse fill="white" stroke="black" cx="2323" cy="-1255.47" rx="18.2703" ry="18.2703"/>
<text text-anchor="middle" x="2323" y="-1253.27" font-family="Times New Roman,serif" font-size="9.00">39</text>
</g>
<!-- 40 -->
<g id="node41" class="node"><title>40</title>
<ellipse fill="white" stroke="black" cx="2378" cy="-1255.47" rx="18.2703" ry="18.2703"/>
<text text-anchor="middle" x="2378" y="-1253.27" font-family="Times New Roman,serif" font-size="9.00">40</text>
</g>
<!-- 41 -->
<g id="node42" class="node"><title>41</title>
<ellipse fill="white" stroke="black" cx="2433" cy="-1255.47" rx="18.2703" ry="18.2703"/>
<text text-anchor="middle" x="2433" y="-1253.27" font-family="Times New Roman,serif" font-size="9.00">41</text>
</g>
<!-- 42 -->
<g id="node43" class="node"><title>42</title>
<ellipse fill="white" stroke="black" cx="2488" cy="-1255.47" rx="18.2703" ry="18.2703"/>
<text text-anchor="middle" x="2488" y="-1253.27" font-family="Times New Roman,serif" font-size="9.00">42</text>
</g>
<!-- 43 -->
<g id="node44" class="node"><title>43</title>
<ellipse fill="white" stroke="black" cx="2543" cy="-1255.47" rx="18.2703" ry="18.2703"/>
<text text-anchor="middle" x="2543" y="-1253.27" font-family="Times New Roman,serif" font-size="9.00">43</text>
</g>
</g>
</svg>
